<svg id="Layer_1" data-name="Layer 1" xmlns="http://www.w3.org/2000/svg" xmlns:xlink="http://www.w3.org/1999/xlink" viewBox="0 0 235.05 171.46"><defs><style>.cls-1{fill:none;}.cls-2{clip-path:url(#clip-path);}.cls-3{fill:#010101;}.cls-4,.cls-5{fill:#fff;}.cls-4{fill-rule:evenodd;}.cls-6{fill:#ed509c;}</style><clipPath id="clip-path" transform="translate(-30.38 -54.92)"><rect class="cls-1" width="300.47" height="300.47"/></clipPath></defs><title>kb motorbike logo md21-3</title><g class="cls-2"><path class="cls-3" d="M145.32,102.28l-1.59,0a2,2,0,0,1-2.09-1.84c-.17-1-.32-2-.48-3-.11-.74-.23-1.48-.35-2.22s-.34-.88-.87-.83a6.13,6.13,0,0,1-.86,0h-.26l-.67,1.52c-.8,1.84-1.62,3.74-2.46,5.59a1.26,1.26,0,0,1-.9.71c-1.26,0-2.52,0-3.84,0H129.3l.13-.29.71-1.71c.53-1.25,1-2.44,1.54-3.64l1.63-3.78c.74-1.71,1.51-3.48,2.25-5.22.17-.39.23-.63.18-.71s-.64-.14-.82-.14h-1.14l.13-.3.39-1c.38-.93.75-1.82,1.17-2.69.18-.38,1-.4,1.06-.4,1.66,0,3.33,0,5,0A1.66,1.66,0,0,1,143,83a1.69,1.69,0,0,1-.08,1.6l-1.58,3.77-.61,1.45a2.87,2.87,0,0,0,2.91-.94c1.85-2,3.82-3.89,5.73-5.74l.11-.11a2.09,2.09,0,0,1,1.34-.56h.6c5.12,0,10.41-.06,15.61,0A5.79,5.79,0,0,1,171.51,84a2.75,2.75,0,0,1,.67,2.94,7.91,7.91,0,0,1-3.74,4.54c-.19.12-.39.23-.58.33l-.09,0a2.77,2.77,0,0,1,1.69,1.77,4.92,4.92,0,0,1-.94,4c-1.77,2.58-4.52,4.07-8.2,4.42-2.12.2-4.3.21-6.4.22l-2.13,0a1.69,1.69,0,0,1-1.5-.57,1.62,1.62,0,0,1,0-1.56l1.52-3.56L155.9,87a1.37,1.37,0,0,0,.07-.24h-2.05l.92-2.33a40.89,40.89,0,0,0-3.34,3.24,30,30,0,0,1-5,4.51,2.94,2.94,0,0,1,.92,2,7.27,7.27,0,0,0,.17.81,5.4,5.4,0,0,1,.15.88l.06.41c.11.73.17,1.1.36,1.28a3.33,3.33,0,0,0,1.41.38l.26,0-.1.24c-.13.29-.25.58-.37.87-.36.88-.74,1.79-1.15,2.67a1,1,0,0,1-.82.41c-.63,0-1.32,0-2.05,0M140.06,94a1.2,1.2,0,0,1,1.17,1.19c.12.74.24,1.48.35,2.22.16,1,.31,2,.48,3a1.57,1.57,0,0,0,1.69,1.48c1.28,0,2.54,0,3.61,0a.8.8,0,0,0,.45-.17c.4-.87.76-1.73,1.14-2.65.09-.21.17-.42.26-.62-1.52-.27-1.61-.41-1.85-2,0-.14,0-.28-.06-.42a6.67,6.67,0,0,0-.14-.82,8.38,8.38,0,0,1-.18-.87c-.13-.78-.25-1.52-1-1.93l-.31-.17L146,92a29.46,29.46,0,0,0,5.21-4.62,42,42,0,0,1,3.59-3.46l.12-.1.5.34-.85,2.17h2l-.06.27a1.94,1.94,0,0,0,0,.2,2,2,0,0,1-.11.37l-4,9.54-1.52,3.57a1.33,1.33,0,0,0-.08,1.16,1.37,1.37,0,0,0,1.15.37h2.13c2.09,0,4.26,0,6.36-.22,3.54-.34,6.2-1.77,7.88-4.24a4.61,4.61,0,0,0,.89-3.62,2.45,2.45,0,0,0-1.53-1.55.31.31,0,0,1-.18-.26l0-.12-.05-.17.15-.08.26-.14.56-.32a7.53,7.53,0,0,0,3.55-4.3,2.34,2.34,0,0,0-.56-2.52,5.45,5.45,0,0,0-4.15-1.41c-5.19-.08-10.48,0-15.59,0h-.6a1.7,1.7,0,0,0-1.06.44l-.11.11c-1.9,1.85-3.87,3.76-5.71,5.73a3.34,3.34,0,0,1-3.56,1l-.25-.05.81-1.93c.54-1.27,1.06-2.52,1.58-3.77.23-.56.27-1,.11-1.2s-.53-.35-1.12-.36c-1.7,0-3.36,0-5,0a1.2,1.2,0,0,0-.68.17c-.41.86-.77,1.74-1.16,2.67l-.27.65h.51c.62,0,1,.07,1.16.33s.07.62-.14,1.12c-.74,1.74-1.51,3.51-2.25,5.22-.54,1.26-1.09,2.51-1.63,3.77l-1.54,3.65-.59,1.41h1c1.32,0,2.57,0,3.82,0a.86.86,0,0,0,.53-.45c.84-1.85,1.66-3.75,2.46-5.59l.78-1.78h.55c.29,0,.55,0,.81,0h.16m19.15,4.37h-.74c-.63,0-1-.13-1.14-.39a1.35,1.35,0,0,1,.11-1.18l.2-.46c.2-.45.4-.9.61-1.35.6-1.31.68-1.37,2.09-1.45h0c.19,0,.37.06.55.09.39.07.8.14,1.19.17a1.5,1.5,0,0,1,1.3.56,1.92,1.92,0,0,1-.05,1.74c-.63,1.73-2.14,2.1-3.68,2.25a4,4,0,0,1-.49,0m1.14-4.41c-1.2.07-1.2.07-1.72,1.2l-.6,1.34-.2.46c-.17.4-.22.65-.14.78s.34.18.79.19h.31a8.35,8.35,0,0,0,.87,0c1.62-.16,2.8-.55,3.32-2,.24-.65.27-1.1.1-1.36a1.22,1.22,0,0,0-1-.37,10.11,10.11,0,0,1-1.23-.17l-.52-.09m2.72-3.65h-2.85l.13-.3c.14-.32.26-.63.38-.92.31-.73.59-1.42.92-2.07a1.44,1.44,0,0,1,1-.63,8.73,8.73,0,0,1,1.84,0,1.58,1.58,0,0,1,1.36.77,1.69,1.69,0,0,1-.16,1.65,2.87,2.87,0,0,1-2.61,1.52m-.95-.43H163a2.43,2.43,0,0,0,2.34-1.32,1.31,1.31,0,0,0,.16-1.24,1.18,1.18,0,0,0-1-.53,8.63,8.63,0,0,0-1.76,0,1,1,0,0,0-.66.41c-.32.63-.59,1.28-.9,2l-.26.63h1.25" transform="translate(-30.38 -54.92)"/><polygon class="cls-4" points="83.56 33.05 102.33 31.82 101.92 32.8 103.23 32.8 104.03 32.8 103.17 34.82 83.56 33.05"/><path class="cls-3" d="M133.68,90l-19.76-1.78v-.43L133,86.51l-.43,1h2.12Zm-17-2,16.73,1.51.68-1.58H132l.41-1Z" transform="translate(-30.38 -54.92)"/><path class="cls-4" d="M173.39,86.94l17.91,1.61-19.57,1.29a8.47,8.47,0,0,0,1.41-2.22,5.71,5.71,0,0,0,.25-.68" transform="translate(-30.38 -54.92)"/><path class="cls-3" d="M171.23,90.08l.34-.38A8.45,8.45,0,0,0,173,87.53q.13-.33.24-.66l.05-.16,18.08,1.63v.42Zm2.31-2.92c-.06.18-.13.36-.2.54a8.37,8.37,0,0,1-1.13,1.89l16.35-1.07Z" transform="translate(-30.38 -54.92)"/><polygon class="cls-4" points="77.55 37.05 102.85 35.56 101.39 38.99 77.55 37.05"/><path class="cls-3" d="M131.91,94.14l-24-2v-.43l25.65-1.5ZM111,92l20.67,1.69,1.27-3Z" transform="translate(-30.38 -54.92)"/><path class="cls-4" d="M170.85,90.72l23.07,1.89-23,1.34a3.47,3.47,0,0,0-.18-1,3.11,3.11,0,0,0-.94-1.36,10.3,10.3,0,0,0,1.08-.85" transform="translate(-30.38 -54.92)"/><path class="cls-3" d="M170.69,94.18V94a3.27,3.27,0,0,0-.17-1,2.78,2.78,0,0,0-.88-1.26l-.21-.18.23-.16a10.86,10.86,0,0,0,1.06-.84l.07-.06h.09l23.07,1.88v.43Zm-.58-2.59a3.31,3.31,0,0,1,.8,1.27,3.45,3.45,0,0,1,.18.87l19.79-1.16-20-1.63a10,10,0,0,1-.81.65" transform="translate(-30.38 -54.92)"/><polygon class="cls-4" points="80.17 41.1 101.08 39.72 99.74 42.86 80.17 41.1"/><path class="cls-3" d="M130.26,98l-19.74-1.78v-.42l21.26-1.4Zm-17-2L130,97.56l1.14-2.68Z" transform="translate(-30.38 -54.92)"/><path class="cls-4" d="M170.79,95.05l17.11,1.54L169.57,97.8a10.27,10.27,0,0,0,.85-1.57,7.67,7.67,0,0,0,.27-.76c0-.14.07-.28.1-.42" transform="translate(-30.38 -54.92)"/><path class="cls-3" d="M169.15,98l.24-.36a9.83,9.83,0,0,0,.83-1.53,6,6,0,0,0,.26-.74,2.92,2.92,0,0,0,.1-.4l0-.19,17.3,1.56v.43ZM171,95.28a2.33,2.33,0,0,1-.07.25,6.09,6.09,0,0,1-.28.78,9.81,9.81,0,0,1-.64,1.25l15.2-1Z" transform="translate(-30.38 -54.92)"/><path class="cls-5" d="M200.62,90.45c-.93-.88-2-1.58-3.08-2.4.21-.53.45-1.11.66-1.7,1.85-5.19.6-9.6-3.72-13a11.69,11.69,0,0,0-2.39-1.59c-2.63-1.17-5.27-2.33-8-3.3-2.06-.74-4.22-1.19-6.3-1.76a21.06,21.06,0,0,0,.71-2.52,6.71,6.71,0,0,0-3.45-7,14.32,14.32,0,0,0-11.48-1.73,8.14,8.14,0,0,0-5.38,3.91c0,.06-.12.1-.18.15a6.44,6.44,0,0,0-7,1.73c-1,1-1.92,2.12-2.91,3.15-1.52,1.58-3,3.2-4.63,4.68a9.75,9.75,0,0,1-4.74,2.35,28.92,28.92,0,0,0-3.64,1,7.09,7.09,0,0,0-4.86,5.36,6.14,6.14,0,0,1-.39,1,2.78,2.78,0,0,0-1.06-3.3,8.76,8.76,0,0,0-3.37-1.38c-7.77-.94-15.55-1.76-23.33-2.62l-4.7-.5-.12.21,10.8,9.44,1.8-1.94L105,74.47l.3,0c6.41.7,12.83,1.39,19.24,2.13a10.34,10.34,0,0,1,2.27.67.76.76,0,0,1,.46,1.13c-.35.83-.71,1.66-1.09,2.49s-.76,1.55-1.19,2.43l7.22,2a17.44,17.44,0,0,1,0-1.78c.18-1.78.32-3.56.63-5.31A4.15,4.15,0,0,1,135.8,75a20.86,20.86,0,0,1,3.08-.9,13.9,13.9,0,0,0,7.38-3.92c1.56-1.5,3-3.17,4.45-4.75a38.67,38.67,0,0,1,2.77-2.81,3.38,3.38,0,0,1,4.13-.33l2.1,1.15a6.28,6.28,0,0,0,.21-.83c.36-2.65,2-4,4.49-4.64a12.06,12.06,0,0,1,7.9.7c3.54,1.53,4.39,3.7,2.91,7.23l-.12.3-3.44-.76c-.22.87-.41,1.66-.61,2.49l.87.23c4.46,1.16,9,2.2,13.37,3.49A21.11,21.11,0,0,1,193.53,76,7.74,7.74,0,0,1,196,84.53a34.46,34.46,0,0,1-1.35,3.35c-.11.25-.25.48-.36.71.36.29,1,.61.94.77-.18.69.37.71.69.89a17.54,17.54,0,1,1-26.16,13.34c.06-.57.13-1.13.21-1.74l-2.5-.51a20.52,20.52,0,0,0,1,11.76c-2.38.12-4.63.29-6.88.35q-12.34.3-24.71.55c-3.63.08-6-2.38-7.23-5.5a1.86,1.86,0,0,1,0-.88c.13-1,.29-2.09.45-3.22h-2.6a17.58,17.58,0,0,1-34.66,3.13,17,17,0,0,1,1.29-11.64,17.56,17.56,0,0,1,12-9.54c-.19-.85-.37-1.64-.55-2.42a19.92,19.92,0,0,0-15.69,17.19,20.2,20.2,0,0,0,38.47,10.67c.15.19.29.34.41.52a9.77,9.77,0,0,0,8.41,4.32c10.62.17,21.21-.37,31.8-.95a1.22,1.22,0,0,1,1.24.64c4.88,7.08,11.63,10.32,20.14,9,8.24-1.31,13.78-6.23,16.11-14.22s.14-14.91-5.88-20.62M129.8,81.86l-1-.22,1-2.72Z" transform="translate(-30.38 -54.92)"/><path class="cls-3" d="M200.62,90.46a37.41,37.41,0,0,0-3.08-2.4h0l.39-1c.12-.34.27-.66.37-1a9.32,9.32,0,0,0,.3-1l.14-.52.09-.53c0-.18.07-.36.09-.53l.06-.54,0-.27v-.81c0-.17,0-.35,0-.53s0-.36-.05-.54a7.83,7.83,0,0,0-.18-1.06c0-.17-.08-.35-.13-.52l-.17-.51-.08-.26-.11-.24-.22-.5c-.07-.16-.17-.31-.25-.47a4.39,4.39,0,0,0-.27-.47,9.16,9.16,0,0,0-.61-.88l-.33-.43-.36-.4a4.51,4.51,0,0,0-.37-.39l-.39-.37c-.25-.26-.54-.48-.81-.71s-.56-.45-.84-.67A8.8,8.8,0,0,0,192,71.74l-2-.87c-1.32-.58-2.64-1.14-4-1.66a40.68,40.68,0,0,0-4.07-1.4c-1.38-.38-2.78-.7-4.17-1.08h0v0c.17-.6.39-1.19.55-1.79a5.73,5.73,0,0,0,.17-.92c0-.15,0-.31.05-.46l0-.47a6.26,6.26,0,0,0-1-3.54,8.42,8.42,0,0,0-2.74-2.5,14.24,14.24,0,0,0-3.41-1.51l-.45-.13-.46-.11c-.3-.07-.61-.11-.92-.17a14.55,14.55,0,0,0-3.73-.06c-.62.08-1.24.17-1.85.31a9.42,9.42,0,0,0-3.43,1.42,7.19,7.19,0,0,0-1.4,1.24c-.2.24-.39.48-.57.74s-.17.26-.25.4l-.12.2c-.05.07-.13.1-.18.15h0a8,8,0,0,0-2.22-.37,5.24,5.24,0,0,0-1.12.08,5.84,5.84,0,0,0-1.09.29,6.38,6.38,0,0,0-1,.49,7.36,7.36,0,0,0-.92.66,18.59,18.59,0,0,0-1.59,1.61c-.51.56-1,1.13-1.52,1.68L147,65.6c-1,1.09-2.09,2.18-3.2,3.21a9.65,9.65,0,0,1-3.87,2.32c-.72.24-1.48.35-2.2.54s-1.46.4-2.18.64a9,9,0,0,0-2.06.91,6.46,6.46,0,0,0-1.7,1.47,7,7,0,0,0-1.13,1.94,8,8,0,0,0-.34,1.08,6.46,6.46,0,0,1-.41,1.06l-.08,0a3.33,3.33,0,0,0-.07-2.16,2.34,2.34,0,0,0-.65-.87,6.36,6.36,0,0,0-.93-.59,9.07,9.07,0,0,0-2-.87,6.72,6.72,0,0,0-1.09-.19L123.93,74l-8.85-1-8.84-1-4.43-.49L97.38,71l.07,0-.12.21,0-.09,10.81,9.44H108l1.79-2v.12L105,74.54l-.15-.13.2,0,.22,0h.25l.44,0,.9.1,1.8.19,3.58.4,7.18.79,3.58.39c.6.07,1.2.12,1.8.2a9.3,9.3,0,0,1,1.75.52l.43.15a1.06,1.06,0,0,1,.4.3.74.74,0,0,1,.16.49,1.13,1.13,0,0,1-.11.48l-.73,1.65-.36.83-.4.81-.79,1.62-.07-.16,7.22,2-.15.12c0-.42,0-.84,0-1.27a4.63,4.63,0,0,1,0-.65l.06-.63c.08-.85.16-1.69.27-2.54.05-.42.1-.84.17-1.27a9.31,9.31,0,0,1,.24-1.26,4,4,0,0,1,1.48-2.12,5.12,5.12,0,0,1,1.14-.64c.41-.16.8-.28,1.21-.42s.81-.27,1.22-.38l.63-.15.63-.12a13,13,0,0,0,4.62-1.92,15.83,15.83,0,0,0,2-1.55c.62-.58,1.21-1.18,1.79-1.8,1.16-1.24,2.28-2.52,3.45-3.75.57-.63,1.15-1.25,1.77-1.85a9.12,9.12,0,0,1,1-.84,3.34,3.34,0,0,1,2.53-.55,4.45,4.45,0,0,1,1.24.43l2.24,1.23-.23.1c.07-.26.15-.52.2-.75a5.76,5.76,0,0,1,.15-.79,5.54,5.54,0,0,1,.6-1.5,5.22,5.22,0,0,1,2.43-2.07,10.82,10.82,0,0,1,3.09-.79,12.18,12.18,0,0,1,3.19.08,12.83,12.83,0,0,1,3.05.87,8.28,8.28,0,0,1,2.7,1.72,4.38,4.38,0,0,1,.88,1.39,4,4,0,0,1,.23,1.61,6.53,6.53,0,0,1-.27,1.59c-.15.51-.36,1-.54,1.5l-.06.14-.15,0-3.44-.76.21-.14-.6,2.49-.13-.22c3.05.82,6.14,1.55,9.2,2.35,1.54.4,3.07.81,4.59,1.24A25.72,25.72,0,0,1,189.37,73a20,20,0,0,1,4,2.61,11.46,11.46,0,0,1,1.67,1.74,8.18,8.18,0,0,1,1.15,2.14,7.49,7.49,0,0,1,.4,2.39,9.24,9.24,0,0,1-.31,2.4,13.53,13.53,0,0,1-.82,2.26L195,87.6c-.08.18-.15.36-.24.55s-.19.36-.28.53l0-.24c.15.12.32.23.5.35l.26.19a.75.75,0,0,1,.14.12l.08.1a.94.94,0,0,1,0,.09.11.11,0,0,1,0,.08v0a.72.72,0,0,0,0,.24.25.25,0,0,0,.08.16,2.85,2.85,0,0,0,.5.25l1.08.67c.35.23.67.5,1,.74a18,18,0,0,1,6.84,13,17.23,17.23,0,0,1-.42,5,17.66,17.66,0,0,1-8.89,11.64,17.89,17.89,0,0,1-9.73,2.07c-.42,0-.83-.08-1.25-.12s-.83-.12-1.24-.22a15.55,15.55,0,0,1-2.42-.69,17.47,17.47,0,0,1-4.4-2.42,17.94,17.94,0,0,1-6.67-10.38,17.56,17.56,0,0,1-.38-5c0-.84.17-1.66.26-2.48l.17.22-2.49-.51.23-.15a19.74,19.74,0,0,0-.35,5.89,22,22,0,0,0,1.37,5.75l.09.26h-.27c-1.89.1-3.78.23-5.68.31-.95,0-1.89,0-2.84.07l-2.84.06-11.36.25-5.68.13-2.85.06H136.2l-.36,0a7.7,7.7,0,0,1-1.42-.33,7,7,0,0,1-2.47-1.53A9.54,9.54,0,0,1,130.2,110a12.88,12.88,0,0,1-.62-1.3,1.05,1.05,0,0,1-.12-.39,2.54,2.54,0,0,1,0-.39c0-.25.06-.47.1-.71l.39-2.82.18.21h-2.6l.18-.17a18.75,18.75,0,0,1-1,4.81c-.13.39-.29.77-.44,1.15s-.33.76-.52,1.12a18.16,18.16,0,0,1-1.27,2.11,18,18,0,0,1-7.52,6.15,17.61,17.61,0,0,1-4.73,1.32,16.69,16.69,0,0,1-2.45.12,20.21,20.21,0,0,1-2.45-.19,18.8,18.8,0,0,1-4.7-1.38c-.37-.18-.75-.34-1.11-.54l-1.06-.61a18.69,18.69,0,0,1-2-1.46l-.47-.39-.44-.43-.44-.43-.21-.22-.2-.23c-.27-.32-.54-.62-.8-.94l-.71-1A18.7,18.7,0,0,1,93.12,109a17.56,17.56,0,0,1-.35-9.69,17.22,17.22,0,0,1,.78-2.33c.15-.38.33-.75.5-1.12s.37-.73.58-1.08a17.28,17.28,0,0,1,3-3.88,17,17,0,0,1,4-2.88,20.9,20.9,0,0,1,4.57-1.74l-.08.14L105.5,84l.13.09a16.74,16.74,0,0,0-4.8,1.64A20,20,0,0,0,91,96.94a21.08,21.08,0,0,0-1.08,5,19.7,19.7,0,0,0-.05,2.55,21.51,21.51,0,0,0,.28,2.53,20.32,20.32,0,0,0,12.38,15.18,20,20,0,0,0,10,1.24,20.19,20.19,0,0,0,15.77-11.65l0-.07,0,.06c.19.23.38.46.55.7l.26.35.28.34a10.29,10.29,0,0,0,1.24,1.23c.22.2.46.36.7.54s.48.32.74.45.53.26.79.39.54.22.82.3a11.91,11.91,0,0,0,3.46.54l3.52,0c4.7,0,9.39-.11,14.08-.29s9.39-.43,14.08-.68a1.37,1.37,0,0,1,.86.16,2.28,2.28,0,0,1,.59.65l.52.71.26.36c.09.12.18.23.28.34.37.45.73.92,1.14,1.33l.6.65.64.6c.42.42.88.78,1.33,1.15.23.19.47.35.71.53l.72.5.75.45.38.23.39.2.79.39.81.34a16.31,16.31,0,0,0,1.66.58l.21.07.22,0,.42.1c.29.06.57.14.86.19l.87.13.44.07.43,0,.88.07h.88c.29,0,.59,0,.88,0l.88-.06.44,0,.43-.06.88-.11c.29,0,.58-.09.86-.14l.87-.17c.29-.06.57-.14.85-.21s.57-.13.85-.23l.84-.27.41-.14.41-.17.82-.33.79-.39c.53-.24,1-.56,1.53-.85.13-.07.25-.16.37-.24l.36-.25.37-.26.18-.12.17-.14a18.26,18.26,0,0,0,4.58-5.28,24,24,0,0,0,2.53-6.55,20.79,20.79,0,0,0,.36-7l-.15-.87-.07-.43c0-.15-.07-.29-.1-.43l-.22-.86c-.08-.28-.18-.55-.27-.83-.17-.57-.42-1.1-.64-1.64-.12-.27-.26-.53-.39-.79s-.25-.53-.41-.78a24.4,24.4,0,0,0-4.37-5.49m0,0A24.18,24.18,0,0,1,205,96a8.3,8.3,0,0,1,.41.78c.13.26.28.52.39.79a16.2,16.2,0,0,1,.64,1.63c.1.28.2.56.28.84l.21.86c0,.14.08.28.11.42l.07.44.15.87a20.36,20.36,0,0,1-.36,7,23.7,23.7,0,0,1-2.52,6.55,18.33,18.33,0,0,1-4.59,5.29l-.17.14-.18.12-.36.26-.36.25c-.12.08-.24.17-.37.24-.51.29-1,.61-1.54.86l-.79.38-.82.34-.41.16-.41.14-.84.28c-.28.09-.57.15-.85.23l-.85.21-.87.17c-.29,0-.58.11-.87.14l-.87.12-.44.05-.44,0-.88,0c-.29,0-.59,0-.88,0s-.59,0-.88,0l-.88-.07-.44,0-.43-.06-.88-.14c-.29,0-.57-.12-.86-.19l-.42-.1-.22,0-.21-.06c-.56-.19-1.13-.34-1.66-.58l-.82-.34-.78-.4-.4-.2-.38-.22-.75-.46c-.25-.16-.48-.33-.72-.5a7.27,7.27,0,0,1-.71-.53c-.45-.37-.92-.73-1.34-1.15l-.64-.6-.6-.64c-.41-.42-.77-.89-1.15-1.34-.09-.12-.19-.23-.28-.34l-.26-.36-.52-.71a2.22,2.22,0,0,0-.58-.64,1.31,1.31,0,0,0-.83-.15c-4.69.26-9.38.5-14.07.69s-9.39.3-14.09.3c-1.17,0-2.35,0-3.52,0a11.7,11.7,0,0,1-3.48-.53,7.46,7.46,0,0,1-.83-.31,8.43,8.43,0,0,1-.8-.39c-.26-.13-.5-.3-.75-.45s-.48-.34-.71-.54a10.46,10.46,0,0,1-1.25-1.24l-.28-.34-.26-.36c-.17-.24-.37-.46-.55-.69h.08a20.33,20.33,0,0,1-25.94,10.51,20.19,20.19,0,0,1-8.22-6A20.55,20.55,0,0,1,90,107a21.87,21.87,0,0,1-.29-2.55,20.2,20.2,0,0,1,0-2.58,21.6,21.6,0,0,1,1.08-5,20.19,20.19,0,0,1,5.66-8.49,20.85,20.85,0,0,1,4.24-2.91,17.11,17.11,0,0,1,4.87-1.66l.11,0,0,.11.55,2.43,0,.11-.12,0a20.9,20.9,0,0,0-4.51,1.73A16.75,16.75,0,0,0,97.79,91a17.31,17.31,0,0,0-2.93,3.83c-.2.35-.38.71-.57,1.07s-.35.73-.49,1.1A17.11,17.11,0,0,0,93,99.33a17.39,17.39,0,0,0,.37,9.54,18.25,18.25,0,0,0,2.1,4.33l.7,1c.26.32.52.62.78.92l.2.23.21.22.43.42.44.42.46.39a17,17,0,0,0,2,1.42l1,.61c.36.19.73.34,1.09.52a18.16,18.16,0,0,0,4.62,1.35,17.65,17.65,0,0,0,2.41.18,16.08,16.08,0,0,0,2.4-.12,17.25,17.25,0,0,0,4.63-1.3,17.67,17.67,0,0,0,7.37-6,15.46,15.46,0,0,0,1.23-2.07c.2-.35.35-.72.52-1.09s.3-.74.42-1.13a18,18,0,0,0,.95-4.71v-.17h3l0,.21-.39,2.81c0,.23-.07.47-.09.7a1.6,1.6,0,0,0,0,.31.69.69,0,0,0,.09.29,12.17,12.17,0,0,0,.61,1.26,9,9,0,0,0,1.68,2.2,6.82,6.82,0,0,0,2.33,1.45,6.93,6.93,0,0,0,1.35.3l.34,0h1.05l2.84-.06,5.68-.13,11.36-.26,2.84-.06c.95,0,1.89,0,2.84-.08,1.89-.07,3.77-.21,5.67-.31l-.18.27a23.07,23.07,0,0,1-1.39-5.86,19.9,19.9,0,0,1,.36-6l0-.19.2,0,2.49.5.18,0,0,.18c-.09.83-.21,1.65-.27,2.47a18.36,18.36,0,0,0,0,2.46,16.79,16.79,0,0,0,.37,2.43,17.17,17.17,0,0,0,.7,2.35,17.54,17.54,0,0,0,5.81,7.78,16.84,16.84,0,0,0,4.3,2.36,15.93,15.93,0,0,0,2.36.68,11.74,11.74,0,0,0,1.21.21c.4,0,.81.11,1.22.12a17.61,17.61,0,0,0,9.5-2,17.17,17.17,0,0,0,8.69-11.37,16.76,16.76,0,0,0,.42-4.89,17.55,17.55,0,0,0-6.68-12.68c-.33-.24-.65-.5-1-.72l-1-.65a2.51,2.51,0,0,1-.59-.32.67.67,0,0,1-.2-.39,1.14,1.14,0,0,1,0-.38h0v0s0,0,0,0l0,0-.1-.08c-.07-.06-.16-.11-.24-.17s-.35-.23-.52-.36l-.13-.1.08-.15c.09-.18.19-.35.27-.52s.15-.35.23-.54l.48-1.08a15,15,0,0,0,.8-2.21,8.89,8.89,0,0,0,.3-2.29,6.93,6.93,0,0,0-.38-2.27,7.6,7.6,0,0,0-1.1-2,10.22,10.22,0,0,0-1.61-1.68,19,19,0,0,0-3.93-2.56,25.45,25.45,0,0,0-4.41-1.66c-1.52-.44-3-.85-4.58-1.24-3.06-.8-6.14-1.53-9.21-2.36l-.17,0,0-.18.61-2.48,0-.17.18,0,3.44.76-.2.11c.19-.5.39-1,.53-1.47a6.46,6.46,0,0,0,.26-1.5,3.67,3.67,0,0,0-.21-1.48,4.13,4.13,0,0,0-.8-1.27,7.78,7.78,0,0,0-2.58-1.64,12.27,12.27,0,0,0-3-.86,11.42,11.42,0,0,0-3.09-.08,10.57,10.57,0,0,0-3,.75,5,5,0,0,0-2.29,2,5.28,5.28,0,0,0-.57,1.41c0,.12-.06.25-.08.37l-.06.39c-.06.28-.14.52-.2.77l-.05.2-.18-.1-2.23-1.22a4.39,4.39,0,0,0-1.15-.41,3.28,3.28,0,0,0-1.21,0,3.2,3.2,0,0,0-1.1.49,7.27,7.27,0,0,0-.95.81c-.61.58-1.19,1.21-1.77,1.83-1.17,1.23-2.28,2.5-3.45,3.75-.58.61-1.18,1.23-1.81,1.8a16.15,16.15,0,0,1-2,1.58,13.3,13.3,0,0,1-4.73,2l-.63.12-.61.14c-.4.11-.81.23-1.21.37s-.81.27-1.19.42a4.39,4.39,0,0,0-1.08.6,3.76,3.76,0,0,0-1.39,2,9.56,9.56,0,0,0-.24,1.23c-.07.42-.12.84-.17,1.26-.11.84-.19,1.69-.27,2.53,0,.43-.1.85-.11,1.26s0,.84,0,1.27v.16l-.15,0-7.22-2-.13,0,.06-.13.79-1.62.39-.81.37-.82.73-1.65a.7.7,0,0,0,0-.74.75.75,0,0,0-.32-.23l-.41-.16a9.82,9.82,0,0,0-1.71-.51l-1.79-.2-3.59-.4-7.17-.8-3.59-.4-1.79-.2-.89-.1-.45,0h-.12a.11.11,0,0,0-.08,0l-.23,0,0-.16,4.85,4.19.07.06-.06.07-1.8,1.94-.06.06-.06,0L97.22,71.21l0,0,0,0,.12-.21,0,0h.05l4.43.48,4.42.5,8.85,1,8.84,1,1.11.12a6.84,6.84,0,0,1,1.1.19,9.53,9.53,0,0,1,2,.88,7.19,7.19,0,0,1,.94.61,2.39,2.39,0,0,1,.67.9,3.35,3.35,0,0,1,.08,2.21l-.07,0a5.82,5.82,0,0,0,.4-1,9.72,9.72,0,0,1,.35-1.08,7.19,7.19,0,0,1,1.14-2,7,7,0,0,1,1.72-1.48,9.38,9.38,0,0,1,2.08-.91c.72-.24,1.45-.46,2.18-.64s1.49-.3,2.2-.54a9.42,9.42,0,0,0,3.85-2.3c1.11-1,2.16-2.12,3.2-3.21l1.57-1.65c.51-.55,1-1.12,1.52-1.67a18.83,18.83,0,0,1,1.6-1.62,7.36,7.36,0,0,1,.92-.66,5.71,5.71,0,0,1,1-.49,5.27,5.27,0,0,1,1.1-.3,6.08,6.08,0,0,1,1.13-.08,7.8,7.8,0,0,1,2.24.38h0c.06,0,.14-.08.17-.14l.12-.2.26-.39a6.74,6.74,0,0,1,.57-.75,7.19,7.19,0,0,1,1.4-1.24A9.51,9.51,0,0,1,164,55.32c.61-.14,1.23-.23,1.85-.31a14.7,14.7,0,0,1,3.75.06c.3.06.62.1.92.18l.46.1.45.13A14.75,14.75,0,0,1,174.85,57a8.4,8.4,0,0,1,2.75,2.52,6.18,6.18,0,0,1,.78,1.69,6.52,6.52,0,0,1,.25,1.86l0,.47c0,.16,0,.31-.05.47a6,6,0,0,1-.18.92c-.16.6-.38,1.19-.55,1.79v0c1.39.38,2.79.7,4.17,1.09a38.3,38.3,0,0,1,4.07,1.4c1.34.53,2.66,1.09,4,1.66l2,.87a9.3,9.3,0,0,1,1.83,1.13c.28.22.57.44.84.67s.56.45.81.71l.39.37c.13.12.25.26.37.39l.36.4.33.43a10.77,10.77,0,0,1,.61.89,4.25,4.25,0,0,1,.27.46c.08.16.18.32.25.48l.22.49.1.25.09.26.17.51c0,.17.08.35.13.52.09.35.12.71.18,1.06a4.9,4.9,0,0,1,0,.54c0,.18,0,.36,0,.53v.81l0,.27,0,.54c0,.17-.06.35-.09.53s-.06.35-.1.53l-.13.52c-.08.35-.2.69-.31,1s-.24.68-.37,1l-.39,1h0c1,.8,2.13,1.51,3.08,2.41" transform="translate(-30.38 -54.92)"/><path class="cls-5" d="M159.58,69.79a16,16,0,0,1-5.36-1.8c-1.21-.57-1.76-.25-1.94,1.11a4.53,4.53,0,0,0,0,.74c.06,2.06.37,2.36,2.39,2.14a34.76,34.76,0,0,1,9.61,0,.91.91,0,0,0,1-1.19,4.08,4.08,0,0,1,.4-3.7c.33-.54.06-.94-.39-1.26s-.75-.13-1.11.25a5,5,0,0,0-1.1,3.72c-1.24,0-2.37.08-3.48,0" transform="translate(-30.38 -54.92)"/><path class="cls-3" d="M159.58,69.79a13.45,13.45,0,0,1-4.24-1.25l-1-.45a2.78,2.78,0,0,0-1-.31.78.78,0,0,0-.48.15,1,1,0,0,0-.28.43,3.43,3.43,0,0,0-.2,1.06,3.25,3.25,0,0,0,0,.54c0,.19,0,.37,0,.55a2.29,2.29,0,0,0,.28,1,1,1,0,0,0,.86.37,5.6,5.6,0,0,0,1.08-.07c1.47-.18,3-.32,4.43-.36a26.61,26.61,0,0,1,4.46.21c.19,0,.37.06.55.09l.27,0a.55.55,0,0,0,.22,0,.74.74,0,0,0,.59-.57.81.81,0,0,0,0-.22,1.58,1.58,0,0,0-.06-.23,5.12,5.12,0,0,1-.15-.56,4.4,4.4,0,0,1-.07-1.15,4.27,4.27,0,0,1,.26-1.11,4.83,4.83,0,0,1,.23-.52l.14-.25.13-.23a.63.63,0,0,0,.07-.46.89.89,0,0,0-.27-.41,1.18,1.18,0,0,0-.42-.29.49.49,0,0,0-.46.07,1.87,1.87,0,0,0-.39.36,3.5,3.5,0,0,0-.33.43,3.57,3.57,0,0,0-.48,1,7,7,0,0,0-.25,2.18v0h0c-1.16,0-2.32.07-3.48,0m0,0c1.16.09,2.32,0,3.48,0h0a6.83,6.83,0,0,1,.21-2.2,3.63,3.63,0,0,1,.45-1,2.36,2.36,0,0,1,.33-.45,1.94,1.94,0,0,1,.41-.4.8.8,0,0,1,.28-.13.55.55,0,0,1,.31,0,1.28,1.28,0,0,1,.5.31,1.06,1.06,0,0,1,.34.49.94.94,0,0,1-.06.62l-.14.25-.12.24a4.4,4.4,0,0,0-.21.5,4.15,4.15,0,0,0-.2,1,3.71,3.71,0,0,0,.1,1,4.91,4.91,0,0,0,.15.51,1.19,1.19,0,0,1,.08.3.74.74,0,0,1,0,.33,1.1,1.1,0,0,1-.88.89,1,1,0,0,1-.34,0l-.28,0-.54-.07a29.34,29.34,0,0,0-4.39-.21c-1.47,0-2.94.15-4.41.28a7.08,7.08,0,0,1-1.13,0,1.72,1.72,0,0,1-.59-.12,1,1,0,0,1-.48-.4,2.53,2.53,0,0,1-.27-1.12c0-.19,0-.37,0-.56a5.24,5.24,0,0,1,0-.56,3.56,3.56,0,0,1,.24-1.11,1.12,1.12,0,0,1,.34-.47.87.87,0,0,1,.56-.16,2.77,2.77,0,0,1,1.06.35l1,.48a12.83,12.83,0,0,0,4.22,1.29" transform="translate(-30.38 -54.92)"/><path class="cls-5" d="M136.43,111.86l28.49-1.9c-.08-1-.15-1.89-.23-2.85l-28.27,4.61s0,.1,0,.14" transform="translate(-30.38 -54.92)"/><path class="cls-3" d="M136.43,111.86l7.17-.56,7.12-.54,7.1-.51,7.08-.5-.19.22-.22-2.84.24.19-7.07,1.13c-2.36.38-4.72.76-7.08,1.12l-7.08,1.1c-2.36.35-4.72.72-7.08,1h0Zm0,0v-.14h0c2.35-.43,4.7-.83,7.05-1.25l7.06-1.21c2.35-.41,4.71-.79,7.06-1.19l7.07-1.17.22,0,0,.22.22,2.85,0,.21-.21,0-7.16.45c-2.38.16-4.77.31-7.14.44l-7.12.41Z" transform="translate(-30.38 -54.92)"/><path class="cls-5" d="M201.24,107.69a14.93,14.93,0,0,0-4.1-11.81c-.64.68-1.2,1.27-1.8,1.89a12.29,12.29,0,0,1,3.3,9.64l2.6.28" transform="translate(-30.38 -54.92)"/><path class="cls-3" d="M201.24,107.69a19,19,0,0,0-.15-3.2,14.92,14.92,0,0,0-.75-3.1,15.16,15.16,0,0,0-1.4-2.86A18.15,18.15,0,0,0,197,96h.31l-1.8,1.89v-.28a12.84,12.84,0,0,1,1.59,2.13,11.28,11.28,0,0,1,1.11,2.42,12.76,12.76,0,0,1,.52,5.24l-.07-.09Zm0,0-2.61-.2h-.07v-.07a13.43,13.43,0,0,0-.69-5.12,12.69,12.69,0,0,0-2.68-4.38l-.13-.14.13-.15,1.8-1.88.16-.17.15.17a16.47,16.47,0,0,1,2,2.59,13.48,13.48,0,0,1,1.37,3,14.37,14.37,0,0,1,.65,3.18,16.49,16.49,0,0,1,0,3.22" transform="translate(-30.38 -54.92)"/><path class="cls-5" d="M100.12,93.88c-3.28,3-4.62,9.05-3.72,11.79l2.42-.33A12.45,12.45,0,0,1,102,95.59l-1.84-1.71" transform="translate(-30.38 -54.92)"/><path class="cls-3" d="M100.12,93.88a11.61,11.61,0,0,0-1.88,2.58A16.16,16.16,0,0,0,97,99.4a15.58,15.58,0,0,0-.62,3.11,8.47,8.47,0,0,0,.21,3.1l-.22-.14,2.41-.34-.18.23a15,15,0,0,1,0-2.68,11.81,11.81,0,0,1,.56-2.61,12.5,12.5,0,0,1,2.73-4.53v.11Zm0,0,1.9,1.65,0,0,0,.06a12.65,12.65,0,0,0-3,9.68l0,.2-.2,0-2.42.34-.18,0,0-.17a8.42,8.42,0,0,1-.21-3.27,15.49,15.49,0,0,1,2.08-6.11,10.59,10.59,0,0,1,2-2.48" transform="translate(-30.38 -54.92)"/><path class="cls-5" d="M172.23,100.4a14.59,14.59,0,0,0-.43,8.84l2.51-.66a12.63,12.63,0,0,1,.34-7.28l-2.42-.9" transform="translate(-30.38 -54.92)"/><path class="cls-3" d="M172.23,100.4a18.18,18.18,0,0,0-.52,2.18,14.92,14.92,0,0,0-.23,2.21,13.7,13.7,0,0,0,.1,2.22,17.84,17.84,0,0,0,.42,2.18l-.25-.15c.84-.22,1.67-.45,2.51-.66l-.15.25a11.94,11.94,0,0,1-.35-3.72,13.24,13.24,0,0,1,.8-3.64l.06.12Zm0,0,2.46.8.09,0,0,.1a14.23,14.23,0,0,0-.62,3.6,12.13,12.13,0,0,0,.39,3.6l0,.2-.2,0-2.51.66-.2,0,0-.2a13,13,0,0,1-.4-2.24,13.25,13.25,0,0,1,0-2.27,12.91,12.91,0,0,1,.36-2.24,15.7,15.7,0,0,1,.69-2.14" transform="translate(-30.38 -54.92)"/><path class="cls-6" d="M140.26,89.63a3.15,3.15,0,0,0,3.37-.95c1.87-2,3.85-3.93,5.83-5.84a1.91,1.91,0,0,1,1.19-.51c5.41,0,10.81-.07,16.2,0a5.6,5.6,0,0,1,4.3,1.48,2.55,2.55,0,0,1,.62,2.73A7.8,7.8,0,0,1,168.12,91c-.27.16-.56.31-.83.46.05.13.06.23.1.25,2.51,1,2,3.67.74,5.49a10.35,10.35,0,0,1-8,4.32c-2.82.27-5.67.2-8.51.24-1.33,0-1.77-.65-1.27-1.83l5.58-13.11a5.11,5.11,0,0,0,.14-.54h-2c.32-.82.62-1.56.91-2.3l-.23-.16c-3.09,2.53-5.4,5.93-8.81,8.09,1.11.63,1,1.88,1.26,2.92a10.85,10.85,0,0,1,.21,1.27c.24,1.55.24,1.55,1.94,1.84-.5,1.19-1,2.37-1.51,3.53a.84.84,0,0,1-.64.28c-1.2,0-2.41,0-3.62,0a1.79,1.79,0,0,1-1.89-1.66c-.29-1.73-.55-3.46-.83-5.18-.1-.61-.34-1.08-1.1-1-.4,0-.8,0-1.24,0-1.06,2.43-2.1,4.84-3.19,7.24a1,1,0,0,1-.71.58c-1.67.05-3.35,0-5.16,0,.78-1.85,1.5-3.61,2.25-5.36,1.29-3,2.61-6,3.88-9,.41-1,.27-1.13-.82-1.15h-.83c.53-1.26,1-2.47,1.56-3.64.09-.19.57-.27.87-.28,1.68,0,3.35,0,5,0,1.34,0,1.73.61,1.2,1.86-.74,1.79-1.49,3.58-2.29,5.46m19.89,3.78c-1.34.08-1.35.07-1.92,1.33-.28.59-.54,1.2-.81,1.8-.41.94-.2,1.25.85,1.27.4,0,.8,0,1.2,0,1.5-.14,2.91-.49,3.5-2.11.48-1.32.19-2-1.07-2a17.59,17.59,0,0,1-1.75-.26m.18-3.65c1,0,1.69,0,2.42,0a2.65,2.65,0,0,0,2.53-1.42c.63-1,.19-2-1-2.09a9,9,0,0,0-1.8,0,1.26,1.26,0,0,0-.82.52c-.46.9-.82,1.85-1.3,3" transform="translate(-30.38 -54.92)"/><polygon class="cls-4" points="83.35 32.74 102.12 31.51 101.7 32.49 103.02 32.49 103.82 32.49 102.96 34.51 83.35 32.74"/><path class="cls-4" d="M173.18,86.62l17.91,1.62-19.57,1.28a8.47,8.47,0,0,0,1.41-2.22,7.08,7.08,0,0,0,.25-.68" transform="translate(-30.38 -54.92)"/><polygon class="cls-4" points="77.33 36.73 102.64 35.25 101.18 38.67 77.33 36.73"/><path class="cls-4" d="M170.64,90.41l23.07,1.88-23,1.35a3.53,3.53,0,0,0-.18-1,3,3,0,0,0-.94-1.35,11.81,11.81,0,0,0,1.08-.85" transform="translate(-30.38 -54.92)"/><polygon class="cls-4" points="79.95 40.78 100.87 39.41 99.53 42.55 79.95 40.78"/><path class="cls-4" d="M170.58,94.74l17.11,1.54-18.33,1.2a9.71,9.71,0,0,0,.85-1.56c.1-.26.2-.51.27-.76s.07-.28.1-.42" transform="translate(-30.38 -54.92)"/><path class="cls-4" d="M265.42,201.19c-31.75-13.63-72.75-21.85-117.52-21.85s-85.77,8.22-117.52,21.85C62.8,189.06,103.59,181,147.9,181s85.1,8,117.52,20.16" transform="translate(-30.38 -54.92)"/><path class="cls-5" d="M191.78,207.48c0,.36,0,.63-.34.8l-1.28.69c-.13.07-.3.14-.3.23s0,.19.26.22l6.6,1c.22,0,.26,0,.26-.14s-.17-.21-.3-.32l-1.28-1.07a1,1,0,0,1-.34-.9V188.85l1.58.23a.62.62,0,0,1,.47.4l2.21,6.37a.39.39,0,0,0,.34.23c.17,0,.22,0,.22-.18v-7.68c0-.06-.09-.13-.22-.15l-12.49-1.84c-.12,0-.21,0-.21.09V194c0,.16,0,.22.21.25s.3,0,.35-.13l2.21-5.71a.42.42,0,0,1,.47-.27l1.58.23ZM173.23,206a1,1,0,0,1-.39.82l-1.08.79c-.09.08-.3.16-.3.28s.08.16.26.17l5.71.46c.17,0,.26-.07.26-.13s-.17-.23-.3-.33l-1.17-1a1,1,0,0,1-.43-.86V191.06h.08L180.94,208a1,1,0,0,0,.86.83l1.82.14c.3,0,.43-.08.43-.3V188.45a1,1,0,0,1,.39-.82l1.09-.79c.12-.08.3-.16.3-.28s-.09-.16-.26-.18l-5.71-.45c-.18,0-.26.07-.26.13s.21.23.3.32l1.21,1a1,1,0,0,1,.39.85v11.38h-.09l-4-13.36c-.08-.31-.22-.54-.52-.56l-5.19-.42c-.18,0-.26.07-.26.13s.21.23.3.33l1.08,1a1.16,1.16,0,0,1,.39.88Zm-9.88-19.62,2.48.1a1.16,1.16,0,0,1,1.13.62l2.35,5.79a.38.38,0,0,0,.35.23c.13,0,.21-.05.21-.18v-7.55a.35.35,0,0,0-.34-.29l-11.27-.44c-.18,0-.26.09-.26.18s.21.19.3.28l1.31.93a1,1,0,0,1,.39.87v18.38a.9.9,0,0,1-.39.84l-1.31.83c-.09.12-.3.17-.3.26s.08.18.26.19l11.27.44c.21,0,.34-.11.34-.26V200a.21.21,0,0,0-.21-.19.32.32,0,0,0-.31.17L167,205.67a1.17,1.17,0,0,1-1.17.5l-2.48-.1v-9.22l1,0a.52.52,0,0,1,.47.24l1.48,2.27c.09.12.13.22.31.22s.17-.05.17-.14V193c0-.13,0-.19-.17-.19s-.18.05-.26.17l-1.53,2.06a.47.47,0,0,1-.47.2l-1,0Zm-14.81-.22h.66c2.13,0,3,1,3,4.1,0,3.64-.87,4.82-3,4.82h-.66Zm0,10.44h.74a2.51,2.51,0,0,1,2.71,2.35v6.52c0,1,.78,1.94,2.78,1.95H157c.22,0,.44,0,.44-.09s-.18-.21-.35-.33l-1.4-1a.73.73,0,0,1-.39-.54V199a3.83,3.83,0,0,0-2.79-3.4c1.53-.66,3.23-2,3.23-5.39,0-3.95-2.36-5.62-6.89-5.63h-5.44c-.18,0-.27.09-.27.18s.22.18.31.27l1.31.88a.94.94,0,0,1,.39.85v18.39a.92.92,0,0,1-.39.85l-1.31.88c-.09.09-.31.18-.31.27s.09.18.27.18l6.84,0c.17,0,.26-.09.26-.18s-.22-.19-.31-.28l-1.3-.88a.92.92,0,0,1-.4-.85Zm-20-10.07.65,0c2.14-.08,3,.88,3,4,0,3.64-.87,4.86-3,4.94l-.65,0Zm0,10.43.74,0a2.38,2.38,0,0,1,2.7,2.23v6.52c0,1,.78,1.91,2.78,1.83l2.26-.09c.22,0,.44,0,.44-.1s-.17-.21-.35-.33l-1.39-1c-.22-.15-.39-.32-.39-.53v-6.34a3.63,3.63,0,0,0-2.79-3.29c1.53-.73,3.22-2.16,3.22-5.53,0-3.94-2.35-5.52-6.87-5.34l-5.44.21c-.17,0-.26.1-.26.19s.22.18.3.26l1.31.83a.9.9,0,0,1,.39.84v18.38a1,1,0,0,1-.39.87l-1.31.93c-.08.09-.3.19-.3.28s.09.18.26.18l6.83-.27c.18,0,.26-.1.26-.19s-.22-.18-.3-.26l-1.31-.83a.9.9,0,0,1-.39-.84Zm-13-9.55c1.3-.1,2.25,2.37,2.25,9.11,0,7.89-1,10.51-2.25,10.61s-2.2-2.37-2.2-10.26c0-6.73,1-9.36,2.2-9.46m0-1.51c-5.19.41-5.75,6.86-5.75,11.23,0,5.73.56,11.94,5.75,11.52s5.8-6.71,5.8-12.45c0-4.37-.56-10.72-5.8-10.3M101.29,189l2.44-.33c.56-.07.94.06,1.11.43l2.31,5.39a.34.34,0,0,0,.35.17c.13,0,.21-.09.21-.18v-7.59c0-.15-.13-.25-.34-.22l-11.08,1.48c-.17,0-.26.13-.26.22s.21.15.3.23l1.28.71a.8.8,0,0,1,.39.8v18.38a1.05,1.05,0,0,1-.39.9l-1.28,1.06c-.09.13-.3.22-.3.31s.09.17.26.15l7-.94c.18,0,.26-.13.26-.22s-.17-.16-.3-.23l-1.58-.67c-.34-.14-.39-.43-.39-.8v-8.55l.94-.13a.45.45,0,0,1,.48.15l1.49,2c.09.11.13.2.26.18a.17.17,0,0,0,.17-.2v-6.41c0-.12-.09-.17-.21-.15a.46.46,0,0,0-.3.25l-1.41,2.29a.6.6,0,0,1-.48.27l-.94.13Z" transform="translate(-30.38 -54.92)"/><path class="cls-3" d="M191.78,207.48a1.41,1.41,0,0,1-.07.5.7.7,0,0,1-.35.35l-.89.48-.45.24c-.06,0-.16.09-.15.17a.2.2,0,0,0,.15.17c.33.06.67.1,1,.15l4,.57,1,.15.5.07.25,0c.08,0,.15,0,.16-.08s-.05-.12-.11-.17l-.19-.16-.39-.32-.78-.65a1.07,1.07,0,0,1-.34-.39,1.16,1.16,0,0,1-.12-.51v-3l-.15-16.19v-.26l.26,0,1.12.15.27,0a1.4,1.4,0,0,1,.31.05.78.78,0,0,1,.35.21,1.14,1.14,0,0,1,.19.3h0l1.79,5.06.45,1.27v0h0l0,0h.09s0,0,0,0a.16.16,0,0,0-.11.08c0,.07,0,0,0,0v-7.63h0a.13.13,0,0,0,0,.06.24.24,0,0,0,0,.07l0,0-.62-.1-5.31-.8-5.31-.8-1.27-.19s0,0,0,0,.05,0,.08-.1a.15.15,0,0,0,0-.06v1.15l0,2.69,0,2.68V194a.29.29,0,0,0,.15,0h0l0-.08.25-.62,2-5h0a.63.63,0,0,1,.21-.25.54.54,0,0,1,.34-.08l.55.08,1.07.17.09,0v.08l0,4.78,0,4.78Zm0,0,0-9.56,0-4.78-.05-4.78.09.11-1.08-.15-.53-.07a.28.28,0,0,0-.31.2h0l-1.9,5-.23.63,0,.08-.08.13a.44.44,0,0,1-.26.12.81.81,0,0,1-.22,0,.4.4,0,0,1-.26-.13.45.45,0,0,1-.1-.27v-1.18l0-2.68,0-2.69v-1.15a.36.36,0,0,1,0-.1.34.34,0,0,1,.2-.22l.17,0h.22l.17,0,.33,0,.66.1,5.31.76,5.31.77.34,0,.16,0,.21,0a.6.6,0,0,1,.3.2.5.5,0,0,1,.07.13.36.36,0,0,1,0,.11v7.65a.63.63,0,0,1-.07.32.39.39,0,0,1-.24.17h-.17a.94.94,0,0,1-.24-.06.57.57,0,0,1-.24-.15.45.45,0,0,1-.1-.13.42.42,0,0,1,0-.12l-.44-1.27-1.74-5.07h0a.38.38,0,0,0-.23-.25l-.24,0-.27,0-1.11-.18.26-.22L195.14,205l0,2v1a1.24,1.24,0,0,0,.1.47,1,1,0,0,0,.32.36l.77.65.39.33.19.16.1.1a.19.19,0,0,1,0,.15.15.15,0,0,1-.1.12.22.22,0,0,1-.14,0,1.9,1.9,0,0,1-.25,0l-.5-.08-1-.15-4-.6-1-.16a.22.22,0,0,1-.16-.19c0-.1.1-.14.17-.18l.44-.24.89-.48a.63.63,0,0,0,.36-.34,1.41,1.41,0,0,0,.07-.5" transform="translate(-30.38 -54.92)"/><path class="cls-3" d="M173.23,206a1,1,0,0,1-.09.45,1.09,1.09,0,0,1-.3.37l-1.08.79h0c-.1.09-.24.13-.3.25s0,.11.08.14a.32.32,0,0,0,.19.05l.77.06,1.56.12,3.1.25a2.47,2.47,0,0,0,.38,0c.06,0,.12-.06.12-.1a.24.24,0,0,0-.09-.15c-.2-.15-.4-.33-.6-.5l-.59-.5a1.84,1.84,0,0,1-.54-.57,1.91,1.91,0,0,1-.1-.78v-2.34c0-4.15-.05-8.31-.07-12.46v-.12H176l0,.08,3.12,10.17,1.56,5.09.39,1.27.1.32a1,1,0,0,0,.1.27.84.84,0,0,0,.35.37.63.63,0,0,0,.22.07l.34,0,.66,0,.66.05h.31l0-10.57,0-5.32V188.5a1.5,1.5,0,0,1,0-.4,1.28,1.28,0,0,1,.46-.7h0l1.09-.79h0l.17-.1s0,0,0,0a.11.11,0,0,0,0,.05v0s0,.06,0,.08,0,.05,0,.06h0l-.17,0-.9-.08-1.82-.15-1.81-.15-.91-.07h-.15s.06,0,.07-.15a.18.18,0,0,0,0-.07s0,0,0,0,.11.08.21.18l0,0,.66.56.34.27.35.31a1.13,1.13,0,0,1,.29.48,1.57,1.57,0,0,1,.05.51v4.36l0,7v.23l-.23,0h-.23l0-.14-2.89-10-.73-2.49-.18-.63a3.59,3.59,0,0,0-.19-.58.44.44,0,0,0-.18-.18l-.13,0h-.16l-.64-.06-2.59-.22-1.29-.12-.32,0a1.6,1.6,0,0,0-.3,0,.18.18,0,0,0-.08.05.17.17,0,0,0,0,.07c.06.07.16.12.24.22h0l1,.88a1.53,1.53,0,0,1,.42.52,1.38,1.38,0,0,1,.09.66v2.6l0,5.21Zm0,0,0-10.42,0-5.21v-2.6a1.25,1.25,0,0,0-.09-.61,1.44,1.44,0,0,0-.4-.49l-1-.86h0c-.06-.07-.16-.12-.25-.21a.21.21,0,0,1-.06-.22.25.25,0,0,1,.17-.14,1.36,1.36,0,0,1,.35,0l.32,0,1.3.09,2.58.19.65,0h.17a.77.77,0,0,1,.19,0,.64.64,0,0,1,.28.26,3.54,3.54,0,0,1,.23.64l.19.62.76,2.48,3,9.92-.19-.15h.09l-.23.21,0-7V188.3a.75.75,0,0,0-.19-.6l-1.32-1.1,0,0h0l-.14-.12a.4.4,0,0,1-.12-.11.45.45,0,0,1-.12-.27.41.41,0,0,1,.19-.34.6.6,0,0,1,.4-.08H180l.91.07,1.81.14,1.81.14.91.07a2.05,2.05,0,0,1,.28,0,.82.82,0,0,1,.19.09.44.44,0,0,1,.19.24.43.43,0,0,1,0,.12.3.3,0,0,1,0,.1.52.52,0,0,1-.06.15,1,1,0,0,1-.15.15l-.22.13h0l-1.08.79h0a.7.7,0,0,0-.26.39.9.9,0,0,0,0,.25v4.33l0,5.32v10.48a.7.7,0,0,1,0,.23.59.59,0,0,1-.19.28.66.66,0,0,1-.27.09h-.22l-.17,0-.66-.05-.66-.06-.33,0a.94.94,0,0,1-.41-.13,1.28,1.28,0,0,1-.55-.58,1.66,1.66,0,0,1-.13-.35l-.09-.32-.38-1.27-1.49-5.11-3-10.22.09.08h-.08l.12-.11c0,4.15-.07,8.31-.07,12.46v2.34a1.57,1.57,0,0,0,.09.75,1.67,1.67,0,0,0,.51.55l.59.51c.2.17.39.34.6.5a.33.33,0,0,1,.11.19.17.17,0,0,1-.16.14,1.68,1.68,0,0,1-.39,0l-3.11-.26-1.55-.13-.77-.06a.38.38,0,0,1-.19,0c-.06,0-.12-.1-.09-.17s.21-.16.3-.25h0l1.08-.79a1.16,1.16,0,0,0,.3-.36,1,1,0,0,0,.09-.45" transform="translate(-30.38 -54.92)"/><path class="cls-3" d="M163.35,186.35l1.93.05a5.28,5.28,0,0,1,1,.07,1,1,0,0,1,.76.6l1.49,3.57.74,1.79.18.43a.29.29,0,0,0,.3.11s0,0,0-.08v-.72l0-3.87v-3l0,0a.26.26,0,0,0-.13-.06l-.46,0-3.87-.12-3.87-.13-1.93-.07-1,0h-.21s0,0,0,0a.09.09,0,0,0,0,0,.25.25,0,0,0,0-.09l0,0a1.75,1.75,0,0,1,.22.18l0,0,1.21.85a1.48,1.48,0,0,1,.32.27,1.15,1.15,0,0,1,.23.42,2.22,2.22,0,0,1,.06.43v18.36a2.22,2.22,0,0,1,0,.43,1.08,1.08,0,0,1-.21.45,1.45,1.45,0,0,1-.17.18,1.4,1.4,0,0,1-.18.12l-1.24.79.08-.07a.85.85,0,0,1-.27.22s-.06,0,0,0a.14.14,0,0,0,0-.07s0,0,0-.06v0a.11.11,0,0,0,0-.06c0-.06-.05,0,0,0h.21l1,0,1.93.07,3.85.16,3.86.15.47,0h.06s0,0,0,0V200h0v0a0,0,0,0,0,0,0s0,0,0,0,0,0,0,0h0l-.05.12-.09.22-.74,1.79-1.47,3.57a1.11,1.11,0,0,1-.43.48,1.69,1.69,0,0,1-.55.18,2.4,2.4,0,0,1-.53,0l-.48,0-1.93-.08h-.26v-.25l0-9.22v-.22h.22l.9,0a.87.87,0,0,1,.55.16l.12.13.07.1.12.19,1,1.52.24.38.12.19c0,.06,0,.07.07.07s.11,0,.05,0,0,.05,0,0V197.1l0-3.63V193h-.07l0,0-.13.16-.13.18-.28.36-1.09,1.45h0a.49.49,0,0,1-.39.23,2.67,2.67,0,0,1-.4,0l-.75,0h-.09v-.09Zm0,0,.09,8.89-.09-.1.75,0a2.07,2.07,0,0,0,.36,0,.3.3,0,0,0,.23-.13h0l1.06-1.47.26-.37.14-.18a1.15,1.15,0,0,1,.16-.2.25.25,0,0,1,.16-.08h.17a.3.3,0,0,1,.18.11.35.35,0,0,1,0,.18v.46l0,3.63v2.39a.29.29,0,0,1-.11.23.37.37,0,0,1-.21.08l-.17,0a.51.51,0,0,1-.27-.22l-.13-.19-.25-.38-1-1.52-.13-.19c-.05-.08-.06-.1-.09-.12a.51.51,0,0,0-.31-.07l-.91,0,.22-.21.05,9.22-.25-.26,1.93.07.48,0a2,2,0,0,0,.43,0,.69.69,0,0,0,.57-.35l1.45-3.56.73-1.78L169,200l0-.11a.55.55,0,0,1,.12-.2.66.66,0,0,1,.41-.17.54.54,0,0,1,.45.2.37.37,0,0,1,.07.14.19.19,0,0,1,0,.08.21.21,0,0,1,0,.06v7.6a.56.56,0,0,1-.23.45.66.66,0,0,1-.4.12l-.49,0-3.86-.14-3.86-.15-1.92-.08-1,0h-.27a.55.55,0,0,1-.42-.28.34.34,0,0,1-.05-.17v-.06s0-.06,0-.09a.63.63,0,0,1,.07-.12.67.67,0,0,1,.17-.14l.11-.07.08-.08,1.24-.78a.51.51,0,0,0,.3-.38,3.52,3.52,0,0,0,0-.67v-18a1,1,0,0,0,0-.3.69.69,0,0,0-.35-.42l-1.19-.86,0,0h0a.82.82,0,0,0-.15-.12.76.76,0,0,1-.14-.13.29.29,0,0,1-.07-.2.41.41,0,0,1,0-.16.46.46,0,0,1,.4-.25.74.74,0,0,1,.15,0h.12l1,0,1.93.08,3.87.18,3.86.17h.5a.6.6,0,0,1,.31.15.31.31,0,0,1,.11.16.49.49,0,0,1,0,.18v2.91l0,3.87v.72a.33.33,0,0,1,0,.18.28.28,0,0,1-.16.11.46.46,0,0,1-.31,0,.45.45,0,0,1-.24-.19c-.08-.18-.12-.31-.19-.47l-.71-1.8-1.42-3.59a.92.92,0,0,0-.68-.57,5.09,5.09,0,0,0-1-.09Z" transform="translate(-30.38 -54.92)"/><path class="cls-3" d="M148.54,186.13c.27,0,.58,0,.86,0a4.35,4.35,0,0,1,.88.07,2.47,2.47,0,0,1,.84.32,2.09,2.09,0,0,1,.65.64,4.15,4.15,0,0,1,.58,1.69,11.44,11.44,0,0,1,.12,1.75,14.79,14.79,0,0,1-.1,1.75,5.09,5.09,0,0,1-.54,1.74,3.51,3.51,0,0,1-.27.4,2.24,2.24,0,0,1-.35.34,2.36,2.36,0,0,1-.87.43,6.62,6.62,0,0,1-1.8.13h-.3v-.29c0-1.53.05-3.05.1-4.55,0-.74.05-1.49.09-2.21Zm0,0,.2,4.55c0,1.47.09,2.92.1,4.38l-.3-.3a6.5,6.5,0,0,0,1.63-.13,1.8,1.8,0,0,0,1.13-.89,4.37,4.37,0,0,0,.48-1.52,11.52,11.52,0,0,0,.15-1.67,11.75,11.75,0,0,0,0-1.68,4.12,4.12,0,0,0-.43-1.57,2,2,0,0,0-.51-.6,2.37,2.37,0,0,0-.73-.36,4.64,4.64,0,0,0-.83-.14l-.86-.07" transform="translate(-30.38 -54.92)"/><path class="cls-3" d="M148.54,196.57c.33,0,.67,0,1,0a3,3,0,0,1,1,.22,2.31,2.31,0,0,1,1.54,2.37l0,1,0,2,0,2v1a2.33,2.33,0,0,0,.12.93,1.92,1.92,0,0,0,1.41,1.06,8.27,8.27,0,0,0,1.94.11h1.75a.16.16,0,0,0-.06.11v0a1,1,0,0,0-.13-.11l-.2-.14-.4-.3-.8-.58a3,3,0,0,1-.42-.34.88.88,0,0,1-.17-.28.41.41,0,0,1,0-.19v-3.1l0-2v-1a3.92,3.92,0,0,0-.09-.93,3.14,3.14,0,0,0-.94-1.54,5,5,0,0,0-1.6-1l-.62-.23.6-.27a4.89,4.89,0,0,0,2.12-1.68,4,4,0,0,0,.6-1.22,5.59,5.59,0,0,0,.28-1.35,8,8,0,0,0-.18-2.76,4.17,4.17,0,0,0-1.46-2.22,6,6,0,0,0-2.52-1,14.64,14.64,0,0,0-2.82-.2l-2.9,0h-2.13s0,0,0,0,0,0,0-.07v0h0v0a.14.14,0,0,0,0-.08s0,0,.07.05a.67.67,0,0,1,.19.15l0-.05,1.21.83a1.42,1.42,0,0,1,.34.29,1,1,0,0,1,.22.44,1.7,1.7,0,0,1,0,.44V196l0,5.87,0,2.94v.36a1.51,1.51,0,0,1,0,.42.93.93,0,0,1-.2.41,1.59,1.59,0,0,1-.33.28l-1.23.81,0,0a1.39,1.39,0,0,1-.24.17s-.05.06,0,0a.2.2,0,0,1,0,0v0h0a.11.11,0,0,0,.08,0h3.41l2.09,0h1.31a.24.24,0,0,0,.13,0h0v0s0,0,0,0a1.87,1.87,0,0,1-.23-.17l0,0-1.14-.8-.15-.1-.15-.12a.85.85,0,0,1-.21-.34,1.85,1.85,0,0,1-.07-.73l0-2.81Zm0,0,.08,5.61,0,2.77a1.91,1.91,0,0,0,.07.65.94.94,0,0,0,.44.44l1.16.77h0v0l.2.13a.38.38,0,0,1,.14.16.31.31,0,0,1,0,.09.2.2,0,0,1,0,.07.3.3,0,0,1-.06.11.44.44,0,0,1-.35.14H149l-2.09,0h-3.41a.49.49,0,0,1-.39-.15.33.33,0,0,1-.07-.13s0-.05,0-.08a.52.52,0,0,1,0-.11.4.4,0,0,1,.16-.19l.18-.13v0h0l1.21-.83a.68.68,0,0,0,.35-.44,1.42,1.42,0,0,0,0-.31v-.36l0-2.94,0-5.87,0-5.88v-3.3a1.39,1.39,0,0,0,0-.3.6.6,0,0,0-.33-.38l-1.22-.82,0,0-.09-.07A.86.86,0,0,1,143,185a.38.38,0,0,1-.08-.17v-.1a.2.2,0,0,1,0-.07.52.52,0,0,1,.12-.22.56.56,0,0,1,.34-.15h5.1a15.28,15.28,0,0,1,2.93.22,6.61,6.61,0,0,1,2.78,1.16,4.73,4.73,0,0,1,1.65,2.53,8.82,8.82,0,0,1,.19,3,6.75,6.75,0,0,1-.31,1.47,5.2,5.2,0,0,1-3,3.22v-.5a5.28,5.28,0,0,1,1.77,1.07,3.63,3.63,0,0,1,1.09,1.81,4.2,4.2,0,0,1,.08,1v1l0,2v3.09s0,0,0,.06a.8.8,0,0,0,.09.14,2.24,2.24,0,0,0,.35.28l.79.6.4.3.2.15a1.13,1.13,0,0,1,.23.22.43.43,0,0,1,0,.16.29.29,0,0,1-.12.21.42.42,0,0,1-.2.06h-1.76a8.22,8.22,0,0,1-2-.16,2.69,2.69,0,0,1-.95-.42,1.82,1.82,0,0,1-.65-.85,1.79,1.79,0,0,1-.12-.52c0-.18,0-.34,0-.51v-1l0-2,0-2v-1a2.27,2.27,0,0,0-1.43-2.32,3.15,3.15,0,0,0-1-.24c-.32,0-.65,0-1,0" transform="translate(-30.38 -54.92)"/><path class="cls-3" d="M128.49,186.5c.27,0,.57-.07.86-.08a3.62,3.62,0,0,1,.87,0,2.38,2.38,0,0,1,.85.29,2,2,0,0,1,.66.65,4.19,4.19,0,0,1,.57,1.69,14,14,0,0,1,0,3.5,5.09,5.09,0,0,1-.54,1.74,2.61,2.61,0,0,1-1.47,1.2,7.07,7.07,0,0,1-1.79.2h-.31v-.31c0-1.52.05-3,.11-4.54,0-.75,0-1.49.09-2.22Zm0,0,.2,4.54c.05,1.47.08,2.93.1,4.38l-.31-.3a6.37,6.37,0,0,0,1.62-.19,2,2,0,0,0,1.13-.92,4.45,4.45,0,0,0,.49-1.52,13.12,13.12,0,0,0,.15-1.67,13.43,13.43,0,0,0,0-1.68,4.1,4.1,0,0,0-.41-1.57,2,2,0,0,0-.52-.6,2.1,2.1,0,0,0-.73-.33,4.86,4.86,0,0,0-.84-.12l-.86,0" transform="translate(-30.38 -54.92)"/><path class="cls-3" d="M128.49,196.94c.32,0,.66-.05,1-.05a2.92,2.92,0,0,1,1,.18,2.26,2.26,0,0,1,1.41,1.34,2.76,2.76,0,0,1,.14,1v1l0,2,0,2v1a2.5,2.5,0,0,0,.12.92,1.77,1.77,0,0,0,1.4,1,7.67,7.67,0,0,0,1.92,0l1,0,.49,0,.23,0,.07,0,0,0a.12.12,0,0,0,0,.08v0s-.05-.05-.1-.08l-.2-.14-.41-.28-.81-.56a2,2,0,0,1-.42-.33.71.71,0,0,1-.18-.28.57.57,0,0,1,0-.18V202.4l0-2v-1a3.41,3.41,0,0,0-.07-.92A3,3,0,0,0,134,197a4.67,4.67,0,0,0-1.61-.91l-.63-.21.6-.29a5.25,5.25,0,0,0,2.09-1.72,5.55,5.55,0,0,0,.9-2.57,7.74,7.74,0,0,0-.16-2.76,4,4,0,0,0-1.43-2.22,5.87,5.87,0,0,0-2.54-.94,14.68,14.68,0,0,0-2.82-.09l-2.89.11-1.44.06-.69,0s0,0,0,0a.09.09,0,0,0,0-.06s0,0,0,0a.2.2,0,0,0,0-.11s0,0,.06,0l.2.14-.06,0,1.24.79.18.13a1.53,1.53,0,0,1,.18.18,1.13,1.13,0,0,1,.2.45,2.13,2.13,0,0,1,0,.42v3.31l0,5.87,0,5.88,0,2.93v.37a1.22,1.22,0,0,1-.06.42,1,1,0,0,1-.21.4,1.48,1.48,0,0,1-.32.27l-1.21.85,0,0a1.83,1.83,0,0,1-.24.18s0,0,0,0a.07.07,0,0,0,0,0v0s0,0,0,0h.34l1,0,2.1-.07,2.09-.07,1,0h.26a.24.24,0,0,0,.13,0h0s0,0,0,0,0,0,0,0a1.2,1.2,0,0,1-.23-.17l0,0-1.16-.76a1.21,1.21,0,0,1-.3-.22.75.75,0,0,1-.21-.34,2.64,2.64,0,0,1-.06-.73l0-2.8Zm0,0,.07,5.58,0,2.77a2,2,0,0,0,.06.65.83.83,0,0,0,.42.43l1.18.73h0l0,0s.11.07.2.13a.32.32,0,0,1,.14.17.24.24,0,0,1,0,.15.17.17,0,0,1-.06.1.47.47,0,0,1-.34.15H130l-1.05,0-2.09.1-2.09.1-1,0-.26,0a.49.49,0,0,1-.4-.16.31.31,0,0,1-.07-.14.17.17,0,0,1,0-.07.21.21,0,0,1,0-.12.43.43,0,0,1,.15-.17l.18-.14h0l0,0,1.18-.86a.74.74,0,0,0,.37-.44,1,1,0,0,0,0-.3v-.37l0-2.93,0-5.88v-8.81a4.6,4.6,0,0,0,0-.67.56.56,0,0,0-.3-.38l-1.24-.78-.32-.2.26.15-.09-.06a.71.71,0,0,1-.23-.19.5.5,0,0,1-.07-.19.61.61,0,0,1,0-.15A.38.38,0,0,1,123,185a.52.52,0,0,1,.32-.15h.39l.37,0,1.44-.06,2.88-.12a16.11,16.11,0,0,1,2.94.11,6.37,6.37,0,0,1,2.81,1.07,4.54,4.54,0,0,1,1.64,2.54,8.56,8.56,0,0,1,.15,3,6.11,6.11,0,0,1-1,2.81,5.78,5.78,0,0,1-2.32,1.9l0-.5a5.08,5.08,0,0,1,1.79,1,3.39,3.39,0,0,1,1.08,1.8,4.16,4.16,0,0,1,.08,1v6a.13.13,0,0,0,0,.06.31.31,0,0,0,.08.13,2.87,2.87,0,0,0,.35.27l.81.58.4.28.2.15.12.09a.53.53,0,0,1,.12.17.2.2,0,0,1,0,.09.22.22,0,0,1,0,.13.33.33,0,0,1-.13.12l-.17,0H137l-.49,0-1,0a8.52,8.52,0,0,1-2-.07,2.69,2.69,0,0,1-1-.4,1.69,1.69,0,0,1-.65-.84,2.6,2.6,0,0,1-.11-1v-1l0-2,0-2v-1a2.56,2.56,0,0,0-.11-1,2.24,2.24,0,0,0-1.32-1.32,3.1,3.1,0,0,0-1-.2c-.33,0-.66,0-1,0" transform="translate(-30.38 -54.92)"/><path class="cls-3" d="M115.51,187.38a1,1,0,0,1,.63.18,1.92,1.92,0,0,1,.45.49,5.1,5.1,0,0,1,.52,1.22,15.1,15.1,0,0,1,.49,2.6,47,47,0,0,1,.31,5.3,49.93,49.93,0,0,1-.15,5.33,17.36,17.36,0,0,1-.44,2.66,5.52,5.52,0,0,1-.52,1.3,2,2,0,0,1-.47.59l-.15.13-.19.1a1.16,1.16,0,0,1-.41.13h-.23a.85.85,0,0,1-.22,0l-.21-.08-.18-.12a1.86,1.86,0,0,1-.51-.58c-.07-.11-.11-.22-.17-.32a2.26,2.26,0,0,1-.13-.33l-.12-.33-.09-.33a16.2,16.2,0,0,1-.43-2.66c-.15-1.78-.16-3.55-.14-5.33a47,47,0,0,1,.34-5.3,16.37,16.37,0,0,1,.51-2.6,5.48,5.48,0,0,1,.5-1.23,1.45,1.45,0,0,1,1-.78m0,0a1.48,1.48,0,0,0-1,.79,5.37,5.37,0,0,0-.49,1.22,15.3,15.3,0,0,0-.44,2.61,42.47,42.47,0,0,0-.11,5.29c0,1.77.14,3.53.35,5.27a17.8,17.8,0,0,0,.47,2.56,5.12,5.12,0,0,0,.46,1.15c.21.34.48.56.76.52a1.13,1.13,0,0,0,.77-.64,4.61,4.61,0,0,0,.46-1.16,16.42,16.42,0,0,0,.49-2.55c.22-1.74.32-3.5.38-5.27a49.15,49.15,0,0,0-.09-5.29,14.38,14.38,0,0,0-.44-2.61,5,5,0,0,0-.5-1.22,1.68,1.68,0,0,0-.44-.48,1,1,0,0,0-.63-.19" transform="translate(-30.38 -54.92)"/><path class="cls-3" d="M115.51,185.87a5.36,5.36,0,0,0-1.72.42,4.82,4.82,0,0,0-1.47,1,7.33,7.33,0,0,0-1.71,3.08,16.66,16.66,0,0,0-.62,3.51c-.09,1.18-.1,2.37-.08,3.56s.08,2.38.2,3.56a17.32,17.32,0,0,0,.64,3.46,6.2,6.2,0,0,0,1.67,2.94,3.7,3.7,0,0,0,1.43.78,4.93,4.93,0,0,0,1.67.12,5.39,5.39,0,0,0,1.64-.39,4.41,4.41,0,0,0,1.37-.94,7.26,7.26,0,0,0,1.69-3,26,26,0,0,0,.93-7c0-1.19,0-2.37,0-3.56a16.76,16.76,0,0,0-.55-3.52,8.32,8.32,0,0,0-.65-1.65,5.14,5.14,0,0,0-1.08-1.41,4.2,4.2,0,0,0-1.55-.85,5.08,5.08,0,0,0-1.78-.15m0,0a5.08,5.08,0,0,1,1.78.14,3.91,3.91,0,0,1,1.56.85,6.61,6.61,0,0,1,1.81,3,25.06,25.06,0,0,1,.81,7.11c0,1.19,0,2.39-.12,3.59a18.93,18.93,0,0,1-.62,3.57A7.55,7.55,0,0,1,119,207.4a5.09,5.09,0,0,1-1.55,1.08,5.85,5.85,0,0,1-1.83.45,5.45,5.45,0,0,1-1.88-.16,4.09,4.09,0,0,1-1.67-.92,5.33,5.33,0,0,1-1.13-1.51,8.94,8.94,0,0,1-.65-1.72,18.27,18.27,0,0,1-.56-3.58c-.08-1.2-.09-2.39-.08-3.59a24.23,24.23,0,0,1,.92-7.09,7.47,7.47,0,0,1,1.79-3.08,4.79,4.79,0,0,1,1.47-1,5.21,5.21,0,0,1,1.73-.41" transform="translate(-30.38 -54.92)"/><path class="cls-3" d="M101.29,189l1.87-.28a6.13,6.13,0,0,1,1-.11,1,1,0,0,1,.47.13.71.71,0,0,1,.32.38l1.53,3.47.77,1.73.05.11s0,0,0,.05a.3.3,0,0,0,.15.06.25.25,0,0,0,.13,0v-1.07l0-3.79v-2.76c.06-.06-.4,0-.69.06l-3.75.53-3.75.53-1.88.26-.94.13H96.4l-.1,0s0,0,0,0a0,0,0,0,1,0,0v0l0-.08c0-.06,0,0,0,0a.93.93,0,0,1,.24.16l-.05,0,1.29.7a1,1,0,0,1,.36.35,1.19,1.19,0,0,1,.15.45,2.77,2.77,0,0,1,0,.4v9.17l0,5.86v2.94a2.37,2.37,0,0,1-.1.83,1.3,1.3,0,0,1-.24.41l-.17.16-.14.11-1.14.93.06-.07a1,1,0,0,1-.26.25s0,.06,0,0a.13.13,0,0,0,0-.1v0a.2.2,0,0,0,0-.08c-.07-.07-.09,0,0,0l.26,0,1.07-.14,2.14-.28,2.13-.28,1.07-.14.27,0h.08a.09.09,0,0,0,0,.06.23.23,0,0,0,0,.07l0,0s0,0,0,0a.92.92,0,0,0-.2-.12l0,0-1.29-.55-.33-.14a.91.91,0,0,1-.38-.35,1.74,1.74,0,0,1-.13-.82V205.1l0-5.61v-.22l.21,0,.73-.09a2.27,2.27,0,0,1,.41,0,.65.65,0,0,1,.26.06.49.49,0,0,1,.24.21v0l1,1.31.47.65.12.15v0h0a0,0,0,0,0,0,0v-.12l0-3.23v-3c0-.08,0,0,0,0h-.06s-.06,0-.09.07a3.47,3.47,0,0,0-.22.32l-.43.68-.86,1.37h0a.68.68,0,0,1-.36.29l-.21,0-.19,0-.75.09-.13,0v-.13Zm0,0,.12,8.89-.13-.11.75-.11a1.67,1.67,0,0,0,.35-.07.37.37,0,0,0,.21-.17h0l.84-1.39.42-.69a3.06,3.06,0,0,1,.23-.36.6.6,0,0,1,.23-.17.43.43,0,0,1,.33,0,.3.3,0,0,1,.14.17.37.37,0,0,1,0,.14v1.42l0,1.62,0,3.23v.11a.74.74,0,0,1,0,.18.35.35,0,0,1-.17.17.32.32,0,0,1-.17,0,.36.36,0,0,1-.22,0,.43.43,0,0,1-.14-.12l-.13-.16-.48-.65-1-1.29h0s0,0-.13,0l-.33,0-.72.1.2-.23,0,5.61v2.81a1.2,1.2,0,0,0,.06.55.24.24,0,0,0,.13.11l.31.14,1.3.54h0a1.83,1.83,0,0,1,.27.16.37.37,0,0,1,.1.11.54.54,0,0,1,.06.11.66.66,0,0,1,0,.13.47.47,0,0,1-.14.3.68.68,0,0,1-.22.14l-.19,0-.26,0-1.07.15-2.14.29-2.13.29-1.07.14-.26,0a.57.57,0,0,1-.52-.15.5.5,0,0,1-.1-.19.45.45,0,0,1,0-.12.5.5,0,0,1,0-.16.48.48,0,0,1,.17-.18l.09-.08,0,0,.06-.06,1.13-.94.14-.11.1-.1a.57.57,0,0,0,.13-.21,1.89,1.89,0,0,0,0-.62v-2.94l0-5.86v-9.17a3.22,3.22,0,0,0,0-.33.45.45,0,0,0-.24-.39l-1.28-.71-.06,0h0L96,188.7a.57.57,0,0,1-.18-.18.29.29,0,0,1,0-.14.26.26,0,0,1,0-.09.58.58,0,0,1,0-.14.54.54,0,0,1,.36-.26l.15,0,.11,0,.94-.12,1.88-.24L103,187l3.76-.47.47-.07a1,1,0,0,1,.3,0,.42.42,0,0,1,.32.25.49.49,0,0,1,0,.19v.83l0,1.89,0,3.79v1.09a.33.33,0,0,1-.11.18.45.45,0,0,1-.31.08.45.45,0,0,1-.29-.12.61.61,0,0,1-.1-.14l0-.11-.73-1.75-1.45-3.5a.7.7,0,0,0-.27-.34,1.06,1.06,0,0,0-.43-.12,7.28,7.28,0,0,0-.93.07Z" transform="translate(-30.38 -54.92)"/><path class="cls-4" d="M244.86,226.38c-29.79-9.53-65-15-102.83-15s-73,5.52-102.82,15C69.62,217.83,104.69,213,142,213s72.41,4.88,102.83,13.43" transform="translate(-30.38 -54.92)"/><path class="cls-5" d="M245,180.43V180c.52.7,1,1.41,1.59,2.12l-.42-.11L245,180.43m-18.24-22-.16.46,1.54.19v-.48Zm-23-2.4c-.07.17-.14.34-.2.5l1.43.12v-.5l-1.23-.12" transform="translate(-30.38 -54.92)"/><path class="cls-6" d="M252,182.26q-2.34-10.81-4.68-21.23t-4.67-20.19v-4.67a2.51,2.51,0,0,1,.26-1,4.34,4.34,0,0,1,.64-1,4.29,4.29,0,0,1,.91-.8,1.82,1.82,0,0,1,1-.32h12.66c0,3.08,0,6.17,0,9.25-.69-.73-1.33-1.47-2-2.19l-7.54-.31c1.54,6.88,3.18,13.88,4.72,21s3.13,14.63,4.7,22.13c0,1.66,0,3.34,0,5a4,4,0,0,1-.46,1.93c-.32.6-.93.76-1.79.48q-6.56-2.15-13.1-4.12c0-2.85,0-5.7,0-8.55.64.85,1.28,1.71,2,2.58l7.34,2m-19-24.67c1.72.22,3.47.46,5.23.7.77-2,1.59-4.1,2.38-6.18-2.55-.27-5.11-.53-7.65-.78q0-6.11-.07-12.2l5.34.18c.66.67,1.33,1.33,2,2,0-2.77,0-5.53,0-8.29l-15.47,0c.55.86,1.13,1.71,1.7,2.58,0,2.49,0,5,0,7.5s0,5,.05,7.51c-.73,2-1.46,4-2.16,6l2.31.29q0,5.59,0,11.18c0,3.72,0,7.45,0,11.17-.62.71-1.22,1.42-1.81,2.11,5.16,1.3,10.35,2.69,15.49,4.15,0-2.83,0-5.66,0-8.5l-2,1.61c-1.79-.45-3.57-.87-5.36-1.29,0-3.29,0-6.58,0-9.87s0-6.59,0-9.88m-29.49-8.69c-.73,1.8-1.48,3.58-2.19,5.37l2.21.19c0,3.35,0,6.7,0,10s0,6.69,0,10c-.58.67-1.15,1.34-1.7,2,3.24.59,6.51,1.2,9.79,1.85-.57-.91-1.15-1.82-1.7-2.72l-.06-10.3c0-3.44,0-6.88,0-10.32.83,3.54,1.74,7.12,2.62,10.7s1.79,7.27,2.69,10.95v2.42l8,1.81c-.58-1-1.15-1.93-1.7-2.89q-1.5-6.58-3-13.06c-1-4.28-2-8.52-2.93-12.71.92-2.75,1.89-5.51,2.82-8.3s1.92-5.66,2.89-8.54c.55-.81,1.13-1.62,1.7-2.44h-8v2.37c-.89,2.38-1.78,4.73-2.63,7.08s-1.7,4.62-2.56,6.91c0-2.34,0-4.68,0-7s0-4.68,0-7c.55-.77,1.12-1.53,1.7-2.31h-9.78c.55.75,1.13,1.5,1.7,2.25,0,2.28,0,4.56,0,6.84s0,4.56.05,6.84m-11.52,23.88c-.57.66-1.15,1.32-1.7,2,3.25.46,6.51.95,9.8,1.49-.6-.86-1.17-1.7-1.74-2.55,0-6.42-.05-12.84-.07-19.26s-.07-12.84-.09-19.26c.6-.72,1.19-1.46,1.81-2.2h-9.86c.55.72,1.12,1.43,1.7,2.15,0,6.28,0,12.56.06,18.83s.07,12.55.09,18.83m-16.52-23.25c0-1.92,0-3.84,0-5.76s0-3.85-.05-5.77l1.57,0a5.6,5.6,0,0,1,2.51.52,4.37,4.37,0,0,1,1.59,1.29,4.49,4.49,0,0,1,.77,1.77,9.83,9.83,0,0,1,.27,2,5.27,5.27,0,0,1-.46,2.05,7.36,7.36,0,0,1-1.13,1.94,7.11,7.11,0,0,1-1.59,1.44,2.93,2.93,0,0,1-1.79.53l-1.67-.07m0,5.47,1.92.1a3.88,3.88,0,0,1,2.16.78,6.23,6.23,0,0,1,1.57,1.74,9,9,0,0,1,1,2.23,9.17,9.17,0,0,1,.37,2.25,9.77,9.77,0,0,1-.28,2.29,5,5,0,0,1-.89,2,4.24,4.24,0,0,1-1.65,1.31A5.11,5.11,0,0,1,177,168l-1.57-.14c0-2.14,0-4.29,0-6.44s0-4.3,0-6.45m7.88-2.93a8.23,8.23,0,0,0,3.7-3.63,10.84,10.84,0,0,0,1.21-5.11,12.08,12.08,0,0,0-.63-3.85,9.9,9.9,0,0,0-1.86-3.35,9.33,9.33,0,0,0-3.09-2.34,9.63,9.63,0,0,0-4.25-.88H167c.57.67,1.17,1.35,1.76,2,0,5.92.05,11.85.07,17.78s0,11.86.09,17.79c-.6.66-1.2,1.33-1.77,2,3,.21,6.11.44,9.2.7.44,0,1.13.09,2.05.14a19.17,19.17,0,0,0,3.25-.17,8,8,0,0,0,3.5-1.18,6.63,6.63,0,0,0,2.1-2.31,9.36,9.36,0,0,0,1-3,20.69,20.69,0,0,0,.25-3.34,18.63,18.63,0,0,0-.49-4.47,6,6,0,0,0-.77-1.87,17.09,17.09,0,0,0-1.44-1.94c-.51-.6-1-1.15-1.43-1.61a8.73,8.73,0,0,1-.88-1l-.24-.35m-33.07-2.91H152a4.68,4.68,0,0,0,2.38-.54,4.75,4.75,0,0,0,1.59-1.38,6,6,0,0,0,.93-1.86,6.3,6.3,0,0,0,.33-1.92,7.78,7.78,0,0,0-.31-2,5.08,5.08,0,0,0-.9-1.8,4.53,4.53,0,0,0-1.7-1.27,6.25,6.25,0,0,0-2.56-.48h-1.59c0,1.88,0,3.76,0,5.63s0,3.75,0,5.63m14.6,21.29,2.25,2c-2.76-.15-5.49-.29-8.23-.38v-1.75c-1.45-3.27-3-6.55-4.41-9.81s-2.87-6.48-4.32-9.71c0,3.2,0,6.4,0,9.59s0,6.4.06,9.6c.53.64,1.09,1.28,1.64,1.92-3.27,0-6.51,0-9.75,0,.57-.64,1.16-1.27,1.76-1.91q-.06-8.77-.09-17.55c0-5.85-.06-11.7-.06-17.56-.6-.66-1.2-1.33-1.77-2h10.5a11.79,11.79,0,0,1,4.61.83,10.28,10.28,0,0,1,3.31,2.11,8.63,8.63,0,0,1,2,3,9.38,9.38,0,0,1,.71,3.37,10.11,10.11,0,0,1-1.46,5.33,11.63,11.63,0,0,1-4,4c1.2,3.12,2.41,6.24,3.6,9.37s2.41,6.31,3.64,9.49M127,172.77a7.42,7.42,0,0,1-4-.7,11.78,11.78,0,0,1-3.24-2.42A14,14,0,0,1,117.3,166a32.36,32.36,0,0,1-2.82-8.86,24.75,24.75,0,0,1-.36-4.06,2.58,2.58,0,0,1,0-.66c0-.21,0-.44,0-.66A25.17,25.17,0,0,1,117.28,140a17.29,17.29,0,0,1,4.1-4.81,9.47,9.47,0,0,1,5.76-2.42,9.87,9.87,0,0,1,6.27,2.26,15.23,15.23,0,0,1,4,4.67,21.05,21.05,0,0,1,2.2,5.81,34.93,34.93,0,0,1,.77,5.71c0,.25,0,.5,0,.74a28.41,28.41,0,0,1-.3,4,27.32,27.32,0,0,1-1.06,4.45,31.2,31.2,0,0,1-1.81,4.41,19.07,19.07,0,0,1-2.47,3.83,12.75,12.75,0,0,1-3.27,2.8,8.72,8.72,0,0,1-4,1.22l-.4,0m.31-6,.68-.14a7.89,7.89,0,0,0,2.18-1.87,15.23,15.23,0,0,0,2-3.1,19.08,19.08,0,0,0,1.5-4.2,21.16,21.16,0,0,0,.6-5.18,24.85,24.85,0,0,0-.31-3.65,17.82,17.82,0,0,0-1.06-3.94,13.92,13.92,0,0,0-2.12-3.55,8.61,8.61,0,0,0-3.48-2.53l-.91.17a8.49,8.49,0,0,0-3,2.44,13.41,13.41,0,0,0-1.94,3.45,18.4,18.4,0,0,0-1,3.93,24.52,24.52,0,0,0-.31,3.9v.92a22.86,22.86,0,0,0,.33,3.89,20.67,20.67,0,0,0,1.1,4,12.63,12.63,0,0,0,2,3.4,5.68,5.68,0,0,0,3,2,4.4,4.4,0,0,0,.73.06M96.52,133v6.91l1.92-1.62c1.3,0,2.6,0,3.9-.08q0,8.72.07,17.42c0,5.8.07,11.61.09,17.41-.64.89-1.26,1.78-1.88,2.68,3.27-.49,6.53-1,9.82-1.38l-1.65-2q0-8.57-.07-17.14c0-5.7,0-11.42-.09-17.14l3.84-.05,1.88,1.46V133H96.52M81.25,179.44a6.3,6.3,0,0,1-4-.32A9.63,9.63,0,0,1,74,176.64a15.93,15.93,0,0,1-2.5-4.08,37.05,37.05,0,0,1-1.78-5.07,36.68,36.68,0,0,1-1.06-5.33,40.2,40.2,0,0,1-.33-4.87,2.78,2.78,0,0,1-.07-.79c0-.27,0-.53,0-.8a34.77,34.77,0,0,1,.79-7,31.4,31.4,0,0,1,2.43-7.23,20.11,20.11,0,0,1,4.08-5.78,8.7,8.7,0,0,1,5.8-2.87,9.19,9.19,0,0,1,6.25,2.59,16.53,16.53,0,0,1,4,5.24,25.69,25.69,0,0,1,2.18,6.47,43.34,43.34,0,0,1,.82,6.36c0,.28,0,.55,0,.82a36.75,36.75,0,0,1-.35,4.55,43.08,43.08,0,0,1-2.83,10.27,27.71,27.71,0,0,1-2.49,4.68,16.55,16.55,0,0,1-3.24,3.6,9.38,9.38,0,0,1-4,2l-.4.08m.29-7.06.68-.25a10.36,10.36,0,0,0,2.17-2.42,22.29,22.29,0,0,0,2-3.8A25.92,25.92,0,0,0,87.89,161a28.86,28.86,0,0,0,.58-6,32,32,0,0,0-.29-4.16,22.27,22.27,0,0,0-1.1-4.45,15.8,15.8,0,0,0-2.08-4,8.67,8.67,0,0,0-3.48-2.84l-.91.22a9,9,0,0,0-3,2.92,17.26,17.26,0,0,0-1.92,4.14,26.59,26.59,0,0,0-1,4.71,36.21,36.21,0,0,0-.29,4.64c0,.37,0,.74,0,1.1a33.52,33.52,0,0,0,.33,4.61,26.09,26.09,0,0,0,1.08,4.65,13.28,13.28,0,0,0,2,3.82,5,5,0,0,0,3,2,3.56,3.56,0,0,0,.73,0m-29.32,19.9c1.06-5.24,2.09-10.45,3.13-15.59s2.08-10.12,3.14-15.11c0,3.43,0,6.87,0,10.3s0,6.86.07,10.29L57,185.35c3.2-.9,6.46-1.76,9.73-2.62-.62-.72-1.22-1.44-1.81-2.18q0-11.25-.09-22.48c0-7.5-.09-15-.09-22.5.6-.86,1.19-1.72,1.81-2.57H60.41c-1.39,4.66-2.81,9.38-4.17,14.18S53.48,157,52.11,162c-1.41-4.64-2.85-9.35-4.23-14.15S45.07,138,43.71,133h-6c.52,1,1.08,2,1.65,2.95,0,8.61,0,17.21.09,25.81s.06,17.2.11,25.8c-.58,1.19-1.13,2.38-1.66,3.55,3.22-1,6.47-2,9.73-3-.57-.79-1.12-1.59-1.67-2.41,0-3.67-.05-7.35-.07-11s0-7.36,0-11Q47.43,171,49,178.22c1.06,4.75,2.14,9.43,3.2,14.06" transform="translate(-30.38 -54.92)"/><path class="cls-4" d="M92.1,197a215,215,0,0,0-31.58,8.43,162.62,162.62,0,0,1,31.58-6.16Zm143.18,8.43A214.65,214.65,0,0,0,203.7,197v2.27a162.62,162.62,0,0,1,31.58,6.16" transform="translate(-30.38 -54.92)"/><path class="cls-4" d="M92.1,201.54A215,215,0,0,0,60.52,210a162.62,162.62,0,0,1,31.58-6.16ZM235.28,210a214.65,214.65,0,0,0-31.58-8.43v2.27A162.62,162.62,0,0,1,235.28,210" transform="translate(-30.38 -54.92)"/><path class="cls-4" d="M92.1,192.44a215,215,0,0,0-31.58,8.43,162.62,162.62,0,0,1,31.58-6.16Zm143.18,8.43a214.65,214.65,0,0,0-31.58-8.43v2.27a162.62,162.62,0,0,1,31.58,6.16" transform="translate(-30.38 -54.92)"/><path class="cls-4" d="M92.1,206.09a215,215,0,0,0-31.58,8.43,162.62,162.62,0,0,1,31.58-6.16Zm143.18,8.43a214.65,214.65,0,0,0-31.58-8.43v2.27a162.62,162.62,0,0,1,31.58,6.16" transform="translate(-30.38 -54.92)"/></g></svg>