<svg viewBox="0 0 128 60" fill="none" xmlns="http://www.w3.org/2000/svg">
<path d="M32.1443 49.0358V50.2615H27.9357V53.2672H32.0229V54.4929H27.9357V58.5529H32.1443V59.7786H26.6628V49.0386H32.1443V49.0358ZM43.89 50.43L42.8743 51.0715C42.4957 50.4015 42.0086 50.06 41.2357 50.06C40.3957 50.06 39.53 50.6586 39.53 51.5843C39.53 52.2672 40.03 52.7658 40.9372 53.1215L41.6815 53.4215C43.59 54.1901 44.2115 55.2586 44.2115 56.6529C44.2115 58.6886 42.6829 60.0001 40.95 60.0001C39.3672 60.0001 38.04 58.8186 37.7972 56.9943L39.0829 56.7101C39.0829 57.9501 40.0029 58.7458 41.0586 58.7458C42.1143 58.7458 42.94 57.8343 42.94 56.6515C42.94 55.7258 42.4515 55.1858 41.18 54.6158L40.4757 54.3015C39.3657 53.8029 38.2557 53.0915 38.2557 51.58C38.2557 49.9129 39.6214 48.8029 41.26 48.8029C42.3972 48.8029 43.33 49.3872 43.8843 50.4258L43.89 50.43ZM55.1615 49.0358V50.2615H52.7401V59.7758H51.4686V50.2615H49.0472V49.0358H55.1644H55.1615ZM63.4958 48.5786L68.3687 59.7729H67.0001L65.8358 57.0815H61.1544L59.9901 59.7729H58.6215L63.4958 48.5786ZM61.6815 55.8572H65.3072L63.4929 51.5129L61.6787 55.8572H61.6815ZM77.9344 49.0358V50.2615H75.513V59.7758H74.2415V50.2615H71.8201V49.0358H77.9344ZM89.0444 49.0358V50.2615H84.8359V53.2672H88.923V54.4929H84.8359V58.5529H89.0444V59.7786H83.563V49.0386H89.0444V49.0358ZM100.79 50.43L99.7745 51.0715C99.3959 50.4015 98.9102 50.06 98.1359 50.06C97.2973 50.06 96.4302 50.6586 96.4302 51.5843C96.4302 52.2672 96.9302 52.7658 97.8373 53.1215L98.5816 53.4215C100.49 54.1901 101.112 55.2586 101.112 56.6529C101.112 58.6886 99.583 60.0001 97.8502 60.0001C96.2673 60.0001 94.9402 58.8186 94.6973 56.9943L95.983 56.7101C95.983 57.9501 96.903 58.7458 97.9587 58.7458C99.0145 58.7458 99.8402 57.8343 99.8402 56.6515C99.8402 55.7258 99.3516 55.1858 98.0802 54.6158L97.3759 54.3015C96.2659 53.8029 95.1559 53.0915 95.1559 51.58C95.1559 49.9129 96.523 48.8029 98.1602 48.8029C99.2973 48.8029 100.23 49.3872 100.784 50.4258L100.79 50.43Z" fill="#202020"/>
<path d="M4.41287 0.788574V16.9529L19.4429 0.788574H25.2201L9.2986 17.5458L25.5001 38.0615H19.5358L6.19859 20.7101L4.4143 22.4901V38.0615H0V0.788574H4.41287ZM71.7216 0.788574C81.3031 0.788574 91.3045 6.07716 91.3045 19.2286C91.3045 31.3887 83.0874 38.0615 71.3931 38.0615H64.1145V0.788574H71.7216ZM68.5273 33.8101H69.7488C81.3959 33.8101 86.8902 28.5687 86.8902 19.4258C86.8902 10.2829 81.9131 5.04144 69.843 5.04144H68.5273V33.8101ZM100.7 0.788574V38.0587H96.286V0.788574H100.7ZM126.67 5.6343L123.149 7.85859C121.833 5.53573 120.143 4.34858 117.466 4.34858C114.555 4.34858 111.549 6.4243 111.549 9.63717C111.549 12.01 113.287 13.74 116.433 14.9772L119.016 16.0158C125.637 18.6843 127.798 22.3915 127.798 27.2372C127.798 34.3072 122.492 38.8544 116.48 38.8544C110.986 38.8544 106.385 34.7501 105.537 28.4244L109.999 27.4358C109.999 31.7358 113.193 34.5058 116.855 34.5058C120.516 34.5058 123.382 31.3429 123.382 27.2386C123.382 24.0258 121.692 22.1472 117.276 20.1686L114.833 19.0815C110.983 17.3515 107.132 14.88 107.132 9.64003C107.132 3.85715 111.875 0 117.557 0C121.502 0 124.742 2.02715 126.667 5.6343H126.67Z" fill="#202020"/>
<path d="M40.3773 6.65716L42.8844 0.788574L59.223 38.0615H53.7916L40.3773 6.65716ZM48.5487 25.7886H32.103L30.0087 30.3972H46.4544L48.5487 25.7886Z" fill="#BD9C66"/>
</svg>
